G04 #@! TF.GenerationSoftware,KiCad,Pcbnew,(5.1.2)-2*
G04 #@! TF.CreationDate,2020-07-12T21:55:24+03:00*
G04 #@! TF.ProjectId,KB-Prototype,4b422d50-726f-4746-9f74-7970652e6b69,rev?*
G04 #@! TF.SameCoordinates,Original*
G04 #@! TF.FileFunction,Legend,Bot*
G04 #@! TF.FilePolarity,Positive*
%FSLAX46Y46*%
G04 Gerber Fmt 4.6, Leading zero omitted, Abs format (unit mm)*
G04 Created by KiCad (PCBNEW (5.1.2)-2) date 2020-07-12 21:55:24*
%MOMM*%
%LPD*%
G04 APERTURE LIST*
%ADD10C,0.150000*%
%ADD11C,0.120000*%
%ADD12C,3.602000*%
%ADD13R,0.502000X2.102000*%
%ADD14R,0.652000X1.602000*%
%ADD15R,1.602000X0.652000*%
%ADD16C,0.100000*%
%ADD17C,1.077000*%
%ADD18C,2.352000*%
%ADD19C,4.089800*%
%ADD20C,1.852000*%
%ADD21R,1.302000X1.902000*%
%ADD22R,0.702000X1.652000*%
%ADD23R,0.902000X1.002000*%
G04 APERTURE END LIST*
D10*
X156294934Y-50956614D02*
X156800011Y-51461691D01*
X156934698Y-51529034D01*
X157069385Y-51529034D01*
X157204072Y-51461691D01*
X157271415Y-51394347D01*
X156328606Y-52337156D02*
X156665324Y-52000439D01*
X155958217Y-51293332D01*
X155621499Y-52909576D02*
X155688843Y-52909576D01*
X155823530Y-52842233D01*
X155890873Y-52774889D01*
X155958217Y-52640202D01*
X155958217Y-52505515D01*
X155924545Y-52404500D01*
X155823530Y-52236141D01*
X155722514Y-52135126D01*
X155554156Y-52034111D01*
X155453140Y-52000439D01*
X155318453Y-52000439D01*
X155183766Y-52067782D01*
X155116423Y-52135126D01*
X155049079Y-52269813D01*
X155049079Y-52337156D01*
X154476660Y-52774889D02*
X154981736Y-53279965D01*
X155116423Y-53347309D01*
X155251110Y-53347309D01*
X155385797Y-53279965D01*
X155453140Y-53212622D01*
X154510331Y-54155431D02*
X154847049Y-53818713D01*
X154139942Y-53111607D01*
X153803225Y-54727851D02*
X153870568Y-54727851D01*
X154005255Y-54660507D01*
X154072599Y-54593164D01*
X154139942Y-54458477D01*
X154139942Y-54323790D01*
X154106270Y-54222774D01*
X154005255Y-54054416D01*
X153904240Y-53953400D01*
X153735881Y-53852385D01*
X153634866Y-53818713D01*
X153500179Y-53818713D01*
X153365492Y-53886057D01*
X153298148Y-53953400D01*
X153230805Y-54088087D01*
X153230805Y-54155431D01*
X152658385Y-54593164D02*
X153163461Y-55098240D01*
X153298148Y-55165583D01*
X153432835Y-55165583D01*
X153567522Y-55098240D01*
X153634866Y-55030896D01*
X152692057Y-55973705D02*
X153028774Y-55636988D01*
X152321668Y-54929881D01*
X151984950Y-56546125D02*
X152052294Y-56546125D01*
X152186981Y-56478782D01*
X152254324Y-56411438D01*
X152321668Y-56276751D01*
X152321668Y-56142064D01*
X152287996Y-56041049D01*
X152186981Y-55872690D01*
X152085965Y-55771675D01*
X151917607Y-55670660D01*
X151816591Y-55636988D01*
X151681904Y-55636988D01*
X151547217Y-55704331D01*
X151479874Y-55771675D01*
X151412530Y-55906362D01*
X151412530Y-55973705D01*
X150840111Y-56411438D02*
X151345187Y-56916514D01*
X151479874Y-56983858D01*
X151614561Y-56983858D01*
X151749248Y-56916514D01*
X151816591Y-56849171D01*
X150873782Y-57791980D02*
X151210500Y-57455263D01*
X150503393Y-56748156D01*
X150166675Y-58364400D02*
X150234019Y-58364400D01*
X150368706Y-58297056D01*
X150436049Y-58229713D01*
X150503393Y-58095026D01*
X150503393Y-57960339D01*
X150469721Y-57859324D01*
X150368706Y-57690965D01*
X150267691Y-57589950D01*
X150099332Y-57488934D01*
X149998317Y-57455263D01*
X149863630Y-57455263D01*
X149728943Y-57522606D01*
X149661599Y-57589950D01*
X149594256Y-57724637D01*
X149594256Y-57791980D01*
X148018750Y-59368750D02*
X146743750Y-59368750D01*
X158368750Y-59943750D02*
X157693750Y-59943750D01*
X158368750Y-49593750D02*
X157693750Y-49593750D01*
X148018750Y-49593750D02*
X148693750Y-49593750D01*
X148018750Y-59943750D02*
X148693750Y-59943750D01*
X148018750Y-49593750D02*
X148018750Y-50268750D01*
X158368750Y-49593750D02*
X158368750Y-50268750D01*
X158368750Y-59943750D02*
X158368750Y-59268750D01*
X148018750Y-59943750D02*
X148018750Y-59368750D01*
D11*
X154103000Y-65917578D02*
X154103000Y-65400422D01*
X155523000Y-65917578D02*
X155523000Y-65400422D01*
X161342000Y-59948578D02*
X161342000Y-59431422D01*
X162762000Y-59948578D02*
X162762000Y-59431422D01*
X140577500Y-38358578D02*
X140577500Y-37841422D01*
X141997500Y-38358578D02*
X141997500Y-37841422D01*
X143752500Y-38358578D02*
X143752500Y-37841422D01*
X145172500Y-38358578D02*
X145172500Y-37841422D01*
X152198000Y-38358578D02*
X152198000Y-37841422D01*
X153618000Y-38358578D02*
X153618000Y-37841422D01*
X155754000Y-38358578D02*
X155754000Y-37841422D01*
X157174000Y-38358578D02*
X157174000Y-37841422D01*
X143204000Y-46572672D02*
X143204000Y-47089828D01*
X141784000Y-46572672D02*
X141784000Y-47089828D01*
D10*
X151686000Y-32213000D02*
X152686000Y-32213000D01*
X151686000Y-29813000D02*
X151686000Y-32213000D01*
X156686000Y-28013000D02*
X152686000Y-28013000D01*
X157686000Y-32213000D02*
X157686000Y-29813000D01*
X156686000Y-32213000D02*
X157686000Y-32213000D01*
X139875000Y-32181250D02*
X140875000Y-32181250D01*
X139875000Y-29781250D02*
X139875000Y-32181250D01*
X144875000Y-27981250D02*
X140875000Y-27981250D01*
X145875000Y-32181250D02*
X145875000Y-29781250D01*
X144875000Y-32181250D02*
X145875000Y-32181250D01*
X159306000Y-32181250D02*
X160306000Y-32181250D01*
X159306000Y-29781250D02*
X159306000Y-32181250D01*
X164306000Y-27981250D02*
X160306000Y-27981250D01*
X165306000Y-32181250D02*
X165306000Y-29781250D01*
X164306000Y-32181250D02*
X165306000Y-32181250D01*
D11*
X120642500Y-77753750D02*
X120642500Y-76293750D01*
X117482500Y-77753750D02*
X117482500Y-75593750D01*
X117482500Y-77753750D02*
X118412500Y-77753750D01*
X120642500Y-77753750D02*
X119712500Y-77753750D01*
X82542500Y-77753750D02*
X82542500Y-76293750D01*
X79382500Y-77753750D02*
X79382500Y-75593750D01*
X79382500Y-77753750D02*
X80312500Y-77753750D01*
X82542500Y-77753750D02*
X81612500Y-77753750D01*
X44442500Y-77753750D02*
X44442500Y-76293750D01*
X41282500Y-77753750D02*
X41282500Y-75593750D01*
X41282500Y-77753750D02*
X42212500Y-77753750D01*
X44442500Y-77753750D02*
X43512500Y-77753750D01*
X120642500Y-58703750D02*
X120642500Y-57243750D01*
X117482500Y-58703750D02*
X117482500Y-56543750D01*
X117482500Y-58703750D02*
X118412500Y-58703750D01*
X120642500Y-58703750D02*
X119712500Y-58703750D01*
X82542500Y-58703750D02*
X82542500Y-57243750D01*
X79382500Y-58703750D02*
X79382500Y-56543750D01*
X79382500Y-58703750D02*
X80312500Y-58703750D01*
X82542500Y-58703750D02*
X81612500Y-58703750D01*
X44442500Y-58703750D02*
X44442500Y-57243750D01*
X41282500Y-58703750D02*
X41282500Y-56543750D01*
X41282500Y-58703750D02*
X42212500Y-58703750D01*
X44442500Y-58703750D02*
X43512500Y-58703750D01*
X120642500Y-39653750D02*
X120642500Y-38193750D01*
X117482500Y-39653750D02*
X117482500Y-37493750D01*
X117482500Y-39653750D02*
X118412500Y-39653750D01*
X120642500Y-39653750D02*
X119712500Y-39653750D01*
X82542500Y-39653750D02*
X82542500Y-38193750D01*
X79382500Y-39653750D02*
X79382500Y-37493750D01*
X79382500Y-39653750D02*
X80312500Y-39653750D01*
X82542500Y-39653750D02*
X81612500Y-39653750D01*
X44442500Y-39653750D02*
X44442500Y-38193750D01*
X41282500Y-39653750D02*
X41282500Y-37493750D01*
X41282500Y-39653750D02*
X42212500Y-39653750D01*
X44442500Y-39653750D02*
X43512500Y-39653750D01*
X143308000Y-60456578D02*
X143308000Y-59939422D01*
X144728000Y-60456578D02*
X144728000Y-59939422D01*
X157697672Y-62790000D02*
X158214828Y-62790000D01*
X157697672Y-64210000D02*
X158214828Y-64210000D01*
X162635000Y-49747672D02*
X162635000Y-50264828D01*
X161215000Y-49747672D02*
X161215000Y-50264828D01*
X146760000Y-46572672D02*
X146760000Y-47089828D01*
X145340000Y-46572672D02*
X145340000Y-47089828D01*
X143927328Y-55478750D02*
X143410172Y-55478750D01*
X143927328Y-54058750D02*
X143410172Y-54058750D01*
D10*
X153272430Y-46585190D02*
X153272430Y-47061380D01*
X153605763Y-46061380D02*
X153272430Y-46585190D01*
X152939097Y-46061380D01*
X152081954Y-47061380D02*
X152653382Y-47061380D01*
X152367668Y-47061380D02*
X152367668Y-46061380D01*
X152462906Y-46204238D01*
X152558144Y-46299476D01*
X152653382Y-46347095D01*
X153955654Y-61671130D02*
X153955654Y-62480654D01*
X153908035Y-62575892D01*
X153860416Y-62623511D01*
X153765178Y-62671130D01*
X153574702Y-62671130D01*
X153479464Y-62623511D01*
X153431845Y-62575892D01*
X153384226Y-62480654D01*
X153384226Y-61671130D01*
X152384226Y-62671130D02*
X152955654Y-62671130D01*
X152669940Y-62671130D02*
X152669940Y-61671130D01*
X152765178Y-61813988D01*
X152860416Y-61909226D01*
X152955654Y-61956845D01*
X156915380Y-65492333D02*
X156439190Y-65159000D01*
X156915380Y-64920904D02*
X155915380Y-64920904D01*
X155915380Y-65301857D01*
X155963000Y-65397095D01*
X156010619Y-65444714D01*
X156105857Y-65492333D01*
X156248714Y-65492333D01*
X156343952Y-65444714D01*
X156391571Y-65397095D01*
X156439190Y-65301857D01*
X156439190Y-64920904D01*
X155915380Y-65825666D02*
X155915380Y-66492333D01*
X156915380Y-66063761D01*
X164154380Y-59523333D02*
X163678190Y-59190000D01*
X164154380Y-58951904D02*
X163154380Y-58951904D01*
X163154380Y-59332857D01*
X163202000Y-59428095D01*
X163249619Y-59475714D01*
X163344857Y-59523333D01*
X163487714Y-59523333D01*
X163582952Y-59475714D01*
X163630571Y-59428095D01*
X163678190Y-59332857D01*
X163678190Y-58951904D01*
X163154380Y-60380476D02*
X163154380Y-60190000D01*
X163202000Y-60094761D01*
X163249619Y-60047142D01*
X163392476Y-59951904D01*
X163582952Y-59904285D01*
X163963904Y-59904285D01*
X164059142Y-59951904D01*
X164106761Y-59999523D01*
X164154380Y-60094761D01*
X164154380Y-60285238D01*
X164106761Y-60380476D01*
X164059142Y-60428095D01*
X163963904Y-60475714D01*
X163725809Y-60475714D01*
X163630571Y-60428095D01*
X163582952Y-60380476D01*
X163535333Y-60285238D01*
X163535333Y-60094761D01*
X163582952Y-59999523D01*
X163630571Y-59951904D01*
X163725809Y-59904285D01*
X143389880Y-37933333D02*
X142913690Y-37600000D01*
X143389880Y-37361904D02*
X142389880Y-37361904D01*
X142389880Y-37742857D01*
X142437500Y-37838095D01*
X142485119Y-37885714D01*
X142580357Y-37933333D01*
X142723214Y-37933333D01*
X142818452Y-37885714D01*
X142866071Y-37838095D01*
X142913690Y-37742857D01*
X142913690Y-37361904D01*
X142389880Y-38838095D02*
X142389880Y-38361904D01*
X142866071Y-38314285D01*
X142818452Y-38361904D01*
X142770833Y-38457142D01*
X142770833Y-38695238D01*
X142818452Y-38790476D01*
X142866071Y-38838095D01*
X142961309Y-38885714D01*
X143199404Y-38885714D01*
X143294642Y-38838095D01*
X143342261Y-38790476D01*
X143389880Y-38695238D01*
X143389880Y-38457142D01*
X143342261Y-38361904D01*
X143294642Y-38314285D01*
X146564880Y-37933333D02*
X146088690Y-37600000D01*
X146564880Y-37361904D02*
X145564880Y-37361904D01*
X145564880Y-37742857D01*
X145612500Y-37838095D01*
X145660119Y-37885714D01*
X145755357Y-37933333D01*
X145898214Y-37933333D01*
X145993452Y-37885714D01*
X146041071Y-37838095D01*
X146088690Y-37742857D01*
X146088690Y-37361904D01*
X145898214Y-38790476D02*
X146564880Y-38790476D01*
X145517261Y-38552380D02*
X146231547Y-38314285D01*
X146231547Y-38933333D01*
X155010380Y-37933333D02*
X154534190Y-37600000D01*
X155010380Y-37361904D02*
X154010380Y-37361904D01*
X154010380Y-37742857D01*
X154058000Y-37838095D01*
X154105619Y-37885714D01*
X154200857Y-37933333D01*
X154343714Y-37933333D01*
X154438952Y-37885714D01*
X154486571Y-37838095D01*
X154534190Y-37742857D01*
X154534190Y-37361904D01*
X154010380Y-38266666D02*
X154010380Y-38885714D01*
X154391333Y-38552380D01*
X154391333Y-38695238D01*
X154438952Y-38790476D01*
X154486571Y-38838095D01*
X154581809Y-38885714D01*
X154819904Y-38885714D01*
X154915142Y-38838095D01*
X154962761Y-38790476D01*
X155010380Y-38695238D01*
X155010380Y-38409523D01*
X154962761Y-38314285D01*
X154915142Y-38266666D01*
X158566380Y-37933333D02*
X158090190Y-37600000D01*
X158566380Y-37361904D02*
X157566380Y-37361904D01*
X157566380Y-37742857D01*
X157614000Y-37838095D01*
X157661619Y-37885714D01*
X157756857Y-37933333D01*
X157899714Y-37933333D01*
X157994952Y-37885714D01*
X158042571Y-37838095D01*
X158090190Y-37742857D01*
X158090190Y-37361904D01*
X157661619Y-38314285D02*
X157614000Y-38361904D01*
X157566380Y-38457142D01*
X157566380Y-38695238D01*
X157614000Y-38790476D01*
X157661619Y-38838095D01*
X157756857Y-38885714D01*
X157852095Y-38885714D01*
X157994952Y-38838095D01*
X158566380Y-38266666D01*
X158566380Y-38885714D01*
X141296380Y-46664583D02*
X140820190Y-46331250D01*
X141296380Y-46093154D02*
X140296380Y-46093154D01*
X140296380Y-46474107D01*
X140344000Y-46569345D01*
X140391619Y-46616964D01*
X140486857Y-46664583D01*
X140629714Y-46664583D01*
X140724952Y-46616964D01*
X140772571Y-46569345D01*
X140820190Y-46474107D01*
X140820190Y-46093154D01*
X141296380Y-47616964D02*
X141296380Y-47045535D01*
X141296380Y-47331250D02*
X140296380Y-47331250D01*
X140439238Y-47236011D01*
X140534476Y-47140773D01*
X140582095Y-47045535D01*
X155019333Y-33765380D02*
X155019333Y-34479666D01*
X155066952Y-34622523D01*
X155162190Y-34717761D01*
X155305047Y-34765380D01*
X155400285Y-34765380D01*
X154638380Y-33765380D02*
X154019333Y-33765380D01*
X154352666Y-34146333D01*
X154209809Y-34146333D01*
X154114571Y-34193952D01*
X154066952Y-34241571D01*
X154019333Y-34336809D01*
X154019333Y-34574904D01*
X154066952Y-34670142D01*
X154114571Y-34717761D01*
X154209809Y-34765380D01*
X154495523Y-34765380D01*
X154590761Y-34717761D01*
X154638380Y-34670142D01*
X143208333Y-33733630D02*
X143208333Y-34447916D01*
X143255952Y-34590773D01*
X143351190Y-34686011D01*
X143494047Y-34733630D01*
X143589285Y-34733630D01*
X142779761Y-33828869D02*
X142732142Y-33781250D01*
X142636904Y-33733630D01*
X142398809Y-33733630D01*
X142303571Y-33781250D01*
X142255952Y-33828869D01*
X142208333Y-33924107D01*
X142208333Y-34019345D01*
X142255952Y-34162202D01*
X142827380Y-34733630D01*
X142208333Y-34733630D01*
X162639333Y-33733630D02*
X162639333Y-34447916D01*
X162686952Y-34590773D01*
X162782190Y-34686011D01*
X162925047Y-34733630D01*
X163020285Y-34733630D01*
X161639333Y-34733630D02*
X162210761Y-34733630D01*
X161925047Y-34733630D02*
X161925047Y-33733630D01*
X162020285Y-33876488D01*
X162115523Y-33971726D01*
X162210761Y-34019345D01*
X117014880Y-76255654D02*
X116014880Y-76255654D01*
X116014880Y-76493750D01*
X116062500Y-76636607D01*
X116157738Y-76731845D01*
X116252976Y-76779464D01*
X116443452Y-76827083D01*
X116586309Y-76827083D01*
X116776785Y-76779464D01*
X116872023Y-76731845D01*
X116967261Y-76636607D01*
X117014880Y-76493750D01*
X117014880Y-76255654D01*
X117014880Y-77303273D02*
X117014880Y-77493750D01*
X116967261Y-77588988D01*
X116919642Y-77636607D01*
X116776785Y-77731845D01*
X116586309Y-77779464D01*
X116205357Y-77779464D01*
X116110119Y-77731845D01*
X116062500Y-77684226D01*
X116014880Y-77588988D01*
X116014880Y-77398511D01*
X116062500Y-77303273D01*
X116110119Y-77255654D01*
X116205357Y-77208035D01*
X116443452Y-77208035D01*
X116538690Y-77255654D01*
X116586309Y-77303273D01*
X116633928Y-77398511D01*
X116633928Y-77588988D01*
X116586309Y-77684226D01*
X116538690Y-77731845D01*
X116443452Y-77779464D01*
X78914880Y-76255654D02*
X77914880Y-76255654D01*
X77914880Y-76493750D01*
X77962500Y-76636607D01*
X78057738Y-76731845D01*
X78152976Y-76779464D01*
X78343452Y-76827083D01*
X78486309Y-76827083D01*
X78676785Y-76779464D01*
X78772023Y-76731845D01*
X78867261Y-76636607D01*
X78914880Y-76493750D01*
X78914880Y-76255654D01*
X78343452Y-77398511D02*
X78295833Y-77303273D01*
X78248214Y-77255654D01*
X78152976Y-77208035D01*
X78105357Y-77208035D01*
X78010119Y-77255654D01*
X77962500Y-77303273D01*
X77914880Y-77398511D01*
X77914880Y-77588988D01*
X77962500Y-77684226D01*
X78010119Y-77731845D01*
X78105357Y-77779464D01*
X78152976Y-77779464D01*
X78248214Y-77731845D01*
X78295833Y-77684226D01*
X78343452Y-77588988D01*
X78343452Y-77398511D01*
X78391071Y-77303273D01*
X78438690Y-77255654D01*
X78533928Y-77208035D01*
X78724404Y-77208035D01*
X78819642Y-77255654D01*
X78867261Y-77303273D01*
X78914880Y-77398511D01*
X78914880Y-77588988D01*
X78867261Y-77684226D01*
X78819642Y-77731845D01*
X78724404Y-77779464D01*
X78533928Y-77779464D01*
X78438690Y-77731845D01*
X78391071Y-77684226D01*
X78343452Y-77588988D01*
X40814880Y-76255654D02*
X39814880Y-76255654D01*
X39814880Y-76493750D01*
X39862500Y-76636607D01*
X39957738Y-76731845D01*
X40052976Y-76779464D01*
X40243452Y-76827083D01*
X40386309Y-76827083D01*
X40576785Y-76779464D01*
X40672023Y-76731845D01*
X40767261Y-76636607D01*
X40814880Y-76493750D01*
X40814880Y-76255654D01*
X39814880Y-77160416D02*
X39814880Y-77827083D01*
X40814880Y-77398511D01*
X117014880Y-57205654D02*
X116014880Y-57205654D01*
X116014880Y-57443750D01*
X116062500Y-57586607D01*
X116157738Y-57681845D01*
X116252976Y-57729464D01*
X116443452Y-57777083D01*
X116586309Y-57777083D01*
X116776785Y-57729464D01*
X116872023Y-57681845D01*
X116967261Y-57586607D01*
X117014880Y-57443750D01*
X117014880Y-57205654D01*
X116014880Y-58634226D02*
X116014880Y-58443750D01*
X116062500Y-58348511D01*
X116110119Y-58300892D01*
X116252976Y-58205654D01*
X116443452Y-58158035D01*
X116824404Y-58158035D01*
X116919642Y-58205654D01*
X116967261Y-58253273D01*
X117014880Y-58348511D01*
X117014880Y-58538988D01*
X116967261Y-58634226D01*
X116919642Y-58681845D01*
X116824404Y-58729464D01*
X116586309Y-58729464D01*
X116491071Y-58681845D01*
X116443452Y-58634226D01*
X116395833Y-58538988D01*
X116395833Y-58348511D01*
X116443452Y-58253273D01*
X116491071Y-58205654D01*
X116586309Y-58158035D01*
X78914880Y-57205654D02*
X77914880Y-57205654D01*
X77914880Y-57443750D01*
X77962500Y-57586607D01*
X78057738Y-57681845D01*
X78152976Y-57729464D01*
X78343452Y-57777083D01*
X78486309Y-57777083D01*
X78676785Y-57729464D01*
X78772023Y-57681845D01*
X78867261Y-57586607D01*
X78914880Y-57443750D01*
X78914880Y-57205654D01*
X77914880Y-58681845D02*
X77914880Y-58205654D01*
X78391071Y-58158035D01*
X78343452Y-58205654D01*
X78295833Y-58300892D01*
X78295833Y-58538988D01*
X78343452Y-58634226D01*
X78391071Y-58681845D01*
X78486309Y-58729464D01*
X78724404Y-58729464D01*
X78819642Y-58681845D01*
X78867261Y-58634226D01*
X78914880Y-58538988D01*
X78914880Y-58300892D01*
X78867261Y-58205654D01*
X78819642Y-58158035D01*
X40814880Y-57205654D02*
X39814880Y-57205654D01*
X39814880Y-57443750D01*
X39862500Y-57586607D01*
X39957738Y-57681845D01*
X40052976Y-57729464D01*
X40243452Y-57777083D01*
X40386309Y-57777083D01*
X40576785Y-57729464D01*
X40672023Y-57681845D01*
X40767261Y-57586607D01*
X40814880Y-57443750D01*
X40814880Y-57205654D01*
X40148214Y-58634226D02*
X40814880Y-58634226D01*
X39767261Y-58396130D02*
X40481547Y-58158035D01*
X40481547Y-58777083D01*
X117014880Y-38155654D02*
X116014880Y-38155654D01*
X116014880Y-38393750D01*
X116062500Y-38536607D01*
X116157738Y-38631845D01*
X116252976Y-38679464D01*
X116443452Y-38727083D01*
X116586309Y-38727083D01*
X116776785Y-38679464D01*
X116872023Y-38631845D01*
X116967261Y-38536607D01*
X117014880Y-38393750D01*
X117014880Y-38155654D01*
X116014880Y-39060416D02*
X116014880Y-39679464D01*
X116395833Y-39346130D01*
X116395833Y-39488988D01*
X116443452Y-39584226D01*
X116491071Y-39631845D01*
X116586309Y-39679464D01*
X116824404Y-39679464D01*
X116919642Y-39631845D01*
X116967261Y-39584226D01*
X117014880Y-39488988D01*
X117014880Y-39203273D01*
X116967261Y-39108035D01*
X116919642Y-39060416D01*
X78914880Y-38155654D02*
X77914880Y-38155654D01*
X77914880Y-38393750D01*
X77962500Y-38536607D01*
X78057738Y-38631845D01*
X78152976Y-38679464D01*
X78343452Y-38727083D01*
X78486309Y-38727083D01*
X78676785Y-38679464D01*
X78772023Y-38631845D01*
X78867261Y-38536607D01*
X78914880Y-38393750D01*
X78914880Y-38155654D01*
X78010119Y-39108035D02*
X77962500Y-39155654D01*
X77914880Y-39250892D01*
X77914880Y-39488988D01*
X77962500Y-39584226D01*
X78010119Y-39631845D01*
X78105357Y-39679464D01*
X78200595Y-39679464D01*
X78343452Y-39631845D01*
X78914880Y-39060416D01*
X78914880Y-39679464D01*
X40814880Y-38155654D02*
X39814880Y-38155654D01*
X39814880Y-38393750D01*
X39862500Y-38536607D01*
X39957738Y-38631845D01*
X40052976Y-38679464D01*
X40243452Y-38727083D01*
X40386309Y-38727083D01*
X40576785Y-38679464D01*
X40672023Y-38631845D01*
X40767261Y-38536607D01*
X40814880Y-38393750D01*
X40814880Y-38155654D01*
X40814880Y-39679464D02*
X40814880Y-39108035D01*
X40814880Y-39393750D02*
X39814880Y-39393750D01*
X39957738Y-39298511D01*
X40052976Y-39203273D01*
X40100595Y-39108035D01*
X146025142Y-60031333D02*
X146072761Y-59983714D01*
X146120380Y-59840857D01*
X146120380Y-59745619D01*
X146072761Y-59602761D01*
X145977523Y-59507523D01*
X145882285Y-59459904D01*
X145691809Y-59412285D01*
X145548952Y-59412285D01*
X145358476Y-59459904D01*
X145263238Y-59507523D01*
X145168000Y-59602761D01*
X145120380Y-59745619D01*
X145120380Y-59840857D01*
X145168000Y-59983714D01*
X145215619Y-60031333D01*
X145120380Y-60936095D02*
X145120380Y-60459904D01*
X145596571Y-60412285D01*
X145548952Y-60459904D01*
X145501333Y-60555142D01*
X145501333Y-60793238D01*
X145548952Y-60888476D01*
X145596571Y-60936095D01*
X145691809Y-60983714D01*
X145929904Y-60983714D01*
X146025142Y-60936095D01*
X146072761Y-60888476D01*
X146120380Y-60793238D01*
X146120380Y-60555142D01*
X146072761Y-60459904D01*
X146025142Y-60412285D01*
X158122916Y-65507142D02*
X158170535Y-65554761D01*
X158313392Y-65602380D01*
X158408630Y-65602380D01*
X158551488Y-65554761D01*
X158646726Y-65459523D01*
X158694345Y-65364285D01*
X158741964Y-65173809D01*
X158741964Y-65030952D01*
X158694345Y-64840476D01*
X158646726Y-64745238D01*
X158551488Y-64650000D01*
X158408630Y-64602380D01*
X158313392Y-64602380D01*
X158170535Y-64650000D01*
X158122916Y-64697619D01*
X157265773Y-64935714D02*
X157265773Y-65602380D01*
X157503869Y-64554761D02*
X157741964Y-65269047D01*
X157122916Y-65269047D01*
X160632142Y-49839583D02*
X160679761Y-49791964D01*
X160727380Y-49649107D01*
X160727380Y-49553869D01*
X160679761Y-49411011D01*
X160584523Y-49315773D01*
X160489285Y-49268154D01*
X160298809Y-49220535D01*
X160155952Y-49220535D01*
X159965476Y-49268154D01*
X159870238Y-49315773D01*
X159775000Y-49411011D01*
X159727380Y-49553869D01*
X159727380Y-49649107D01*
X159775000Y-49791964D01*
X159822619Y-49839583D01*
X159727380Y-50172916D02*
X159727380Y-50791964D01*
X160108333Y-50458630D01*
X160108333Y-50601488D01*
X160155952Y-50696726D01*
X160203571Y-50744345D01*
X160298809Y-50791964D01*
X160536904Y-50791964D01*
X160632142Y-50744345D01*
X160679761Y-50696726D01*
X160727380Y-50601488D01*
X160727380Y-50315773D01*
X160679761Y-50220535D01*
X160632142Y-50172916D01*
X144757142Y-46664583D02*
X144804761Y-46616964D01*
X144852380Y-46474107D01*
X144852380Y-46378869D01*
X144804761Y-46236011D01*
X144709523Y-46140773D01*
X144614285Y-46093154D01*
X144423809Y-46045535D01*
X144280952Y-46045535D01*
X144090476Y-46093154D01*
X143995238Y-46140773D01*
X143900000Y-46236011D01*
X143852380Y-46378869D01*
X143852380Y-46474107D01*
X143900000Y-46616964D01*
X143947619Y-46664583D01*
X143947619Y-47045535D02*
X143900000Y-47093154D01*
X143852380Y-47188392D01*
X143852380Y-47426488D01*
X143900000Y-47521726D01*
X143947619Y-47569345D01*
X144042857Y-47616964D01*
X144138095Y-47616964D01*
X144280952Y-47569345D01*
X144852380Y-46997916D01*
X144852380Y-47616964D01*
X143835416Y-53475892D02*
X143883035Y-53523511D01*
X144025892Y-53571130D01*
X144121130Y-53571130D01*
X144263988Y-53523511D01*
X144359226Y-53428273D01*
X144406845Y-53333035D01*
X144454464Y-53142559D01*
X144454464Y-52999702D01*
X144406845Y-52809226D01*
X144359226Y-52713988D01*
X144263988Y-52618750D01*
X144121130Y-52571130D01*
X144025892Y-52571130D01*
X143883035Y-52618750D01*
X143835416Y-52666369D01*
X142883035Y-53571130D02*
X143454464Y-53571130D01*
X143168750Y-53571130D02*
X143168750Y-52571130D01*
X143263988Y-52713988D01*
X143359226Y-52809226D01*
X143454464Y-52856845D01*
%LPC*%
D12*
X165862000Y-77851000D03*
X165862000Y-37592000D03*
X26670000Y-78105000D03*
X26797000Y-26670000D03*
D13*
X151581000Y-44577000D03*
X153981000Y-44577000D03*
X152781000Y-44577000D03*
D14*
X149193750Y-60468750D03*
X149993750Y-60468750D03*
X150793750Y-60468750D03*
X151593750Y-60468750D03*
X152393750Y-60468750D03*
X153193750Y-60468750D03*
X153993750Y-60468750D03*
X154793750Y-60468750D03*
X155593750Y-60468750D03*
X156393750Y-60468750D03*
X157193750Y-60468750D03*
D15*
X158893750Y-58768750D03*
X158893750Y-57968750D03*
X158893750Y-57168750D03*
X158893750Y-56368750D03*
X158893750Y-55568750D03*
X158893750Y-54768750D03*
X158893750Y-53968750D03*
X158893750Y-53168750D03*
X158893750Y-52368750D03*
X158893750Y-51568750D03*
X158893750Y-50768750D03*
D14*
X157193750Y-49068750D03*
X156393750Y-49068750D03*
X155593750Y-49068750D03*
X154793750Y-49068750D03*
X153993750Y-49068750D03*
X153193750Y-49068750D03*
X152393750Y-49068750D03*
X151593750Y-49068750D03*
X150793750Y-49068750D03*
X149993750Y-49068750D03*
X149193750Y-49068750D03*
D15*
X147493750Y-50768750D03*
X147493750Y-51568750D03*
X147493750Y-52368750D03*
X147493750Y-53168750D03*
X147493750Y-53968750D03*
X147493750Y-54768750D03*
X147493750Y-55568750D03*
X147493750Y-56368750D03*
X147493750Y-57168750D03*
X147493750Y-57968750D03*
X147493750Y-58768750D03*
D16*
G36*
X155321141Y-64184297D02*
G01*
X155347278Y-64188174D01*
X155372909Y-64194594D01*
X155397788Y-64203495D01*
X155421674Y-64214793D01*
X155444337Y-64228377D01*
X155465560Y-64244117D01*
X155485139Y-64261861D01*
X155502883Y-64281440D01*
X155518623Y-64302663D01*
X155532207Y-64325326D01*
X155543505Y-64349212D01*
X155552406Y-64374091D01*
X155558826Y-64399722D01*
X155562703Y-64425859D01*
X155564000Y-64452250D01*
X155564000Y-64990750D01*
X155562703Y-65017141D01*
X155558826Y-65043278D01*
X155552406Y-65068909D01*
X155543505Y-65093788D01*
X155532207Y-65117674D01*
X155518623Y-65140337D01*
X155502883Y-65161560D01*
X155485139Y-65181139D01*
X155465560Y-65198883D01*
X155444337Y-65214623D01*
X155421674Y-65228207D01*
X155397788Y-65239505D01*
X155372909Y-65248406D01*
X155347278Y-65254826D01*
X155321141Y-65258703D01*
X155294750Y-65260000D01*
X154331250Y-65260000D01*
X154304859Y-65258703D01*
X154278722Y-65254826D01*
X154253091Y-65248406D01*
X154228212Y-65239505D01*
X154204326Y-65228207D01*
X154181663Y-65214623D01*
X154160440Y-65198883D01*
X154140861Y-65181139D01*
X154123117Y-65161560D01*
X154107377Y-65140337D01*
X154093793Y-65117674D01*
X154082495Y-65093788D01*
X154073594Y-65068909D01*
X154067174Y-65043278D01*
X154063297Y-65017141D01*
X154062000Y-64990750D01*
X154062000Y-64452250D01*
X154063297Y-64425859D01*
X154067174Y-64399722D01*
X154073594Y-64374091D01*
X154082495Y-64349212D01*
X154093793Y-64325326D01*
X154107377Y-64302663D01*
X154123117Y-64281440D01*
X154140861Y-64261861D01*
X154160440Y-64244117D01*
X154181663Y-64228377D01*
X154204326Y-64214793D01*
X154228212Y-64203495D01*
X154253091Y-64194594D01*
X154278722Y-64188174D01*
X154304859Y-64184297D01*
X154331250Y-64183000D01*
X155294750Y-64183000D01*
X155321141Y-64184297D01*
X155321141Y-64184297D01*
G37*
D17*
X154813000Y-64721500D03*
D16*
G36*
X155321141Y-66059297D02*
G01*
X155347278Y-66063174D01*
X155372909Y-66069594D01*
X155397788Y-66078495D01*
X155421674Y-66089793D01*
X155444337Y-66103377D01*
X155465560Y-66119117D01*
X155485139Y-66136861D01*
X155502883Y-66156440D01*
X155518623Y-66177663D01*
X155532207Y-66200326D01*
X155543505Y-66224212D01*
X155552406Y-66249091D01*
X155558826Y-66274722D01*
X155562703Y-66300859D01*
X155564000Y-66327250D01*
X155564000Y-66865750D01*
X155562703Y-66892141D01*
X155558826Y-66918278D01*
X155552406Y-66943909D01*
X155543505Y-66968788D01*
X155532207Y-66992674D01*
X155518623Y-67015337D01*
X155502883Y-67036560D01*
X155485139Y-67056139D01*
X155465560Y-67073883D01*
X155444337Y-67089623D01*
X155421674Y-67103207D01*
X155397788Y-67114505D01*
X155372909Y-67123406D01*
X155347278Y-67129826D01*
X155321141Y-67133703D01*
X155294750Y-67135000D01*
X154331250Y-67135000D01*
X154304859Y-67133703D01*
X154278722Y-67129826D01*
X154253091Y-67123406D01*
X154228212Y-67114505D01*
X154204326Y-67103207D01*
X154181663Y-67089623D01*
X154160440Y-67073883D01*
X154140861Y-67056139D01*
X154123117Y-67036560D01*
X154107377Y-67015337D01*
X154093793Y-66992674D01*
X154082495Y-66968788D01*
X154073594Y-66943909D01*
X154067174Y-66918278D01*
X154063297Y-66892141D01*
X154062000Y-66865750D01*
X154062000Y-66327250D01*
X154063297Y-66300859D01*
X154067174Y-66274722D01*
X154073594Y-66249091D01*
X154082495Y-66224212D01*
X154093793Y-66200326D01*
X154107377Y-66177663D01*
X154123117Y-66156440D01*
X154140861Y-66136861D01*
X154160440Y-66119117D01*
X154181663Y-66103377D01*
X154204326Y-66089793D01*
X154228212Y-66078495D01*
X154253091Y-66069594D01*
X154278722Y-66063174D01*
X154304859Y-66059297D01*
X154331250Y-66058000D01*
X155294750Y-66058000D01*
X155321141Y-66059297D01*
X155321141Y-66059297D01*
G37*
D17*
X154813000Y-66596500D03*
D16*
G36*
X162560141Y-58215297D02*
G01*
X162586278Y-58219174D01*
X162611909Y-58225594D01*
X162636788Y-58234495D01*
X162660674Y-58245793D01*
X162683337Y-58259377D01*
X162704560Y-58275117D01*
X162724139Y-58292861D01*
X162741883Y-58312440D01*
X162757623Y-58333663D01*
X162771207Y-58356326D01*
X162782505Y-58380212D01*
X162791406Y-58405091D01*
X162797826Y-58430722D01*
X162801703Y-58456859D01*
X162803000Y-58483250D01*
X162803000Y-59021750D01*
X162801703Y-59048141D01*
X162797826Y-59074278D01*
X162791406Y-59099909D01*
X162782505Y-59124788D01*
X162771207Y-59148674D01*
X162757623Y-59171337D01*
X162741883Y-59192560D01*
X162724139Y-59212139D01*
X162704560Y-59229883D01*
X162683337Y-59245623D01*
X162660674Y-59259207D01*
X162636788Y-59270505D01*
X162611909Y-59279406D01*
X162586278Y-59285826D01*
X162560141Y-59289703D01*
X162533750Y-59291000D01*
X161570250Y-59291000D01*
X161543859Y-59289703D01*
X161517722Y-59285826D01*
X161492091Y-59279406D01*
X161467212Y-59270505D01*
X161443326Y-59259207D01*
X161420663Y-59245623D01*
X161399440Y-59229883D01*
X161379861Y-59212139D01*
X161362117Y-59192560D01*
X161346377Y-59171337D01*
X161332793Y-59148674D01*
X161321495Y-59124788D01*
X161312594Y-59099909D01*
X161306174Y-59074278D01*
X161302297Y-59048141D01*
X161301000Y-59021750D01*
X161301000Y-58483250D01*
X161302297Y-58456859D01*
X161306174Y-58430722D01*
X161312594Y-58405091D01*
X161321495Y-58380212D01*
X161332793Y-58356326D01*
X161346377Y-58333663D01*
X161362117Y-58312440D01*
X161379861Y-58292861D01*
X161399440Y-58275117D01*
X161420663Y-58259377D01*
X161443326Y-58245793D01*
X161467212Y-58234495D01*
X161492091Y-58225594D01*
X161517722Y-58219174D01*
X161543859Y-58215297D01*
X161570250Y-58214000D01*
X162533750Y-58214000D01*
X162560141Y-58215297D01*
X162560141Y-58215297D01*
G37*
D17*
X162052000Y-58752500D03*
D16*
G36*
X162560141Y-60090297D02*
G01*
X162586278Y-60094174D01*
X162611909Y-60100594D01*
X162636788Y-60109495D01*
X162660674Y-60120793D01*
X162683337Y-60134377D01*
X162704560Y-60150117D01*
X162724139Y-60167861D01*
X162741883Y-60187440D01*
X162757623Y-60208663D01*
X162771207Y-60231326D01*
X162782505Y-60255212D01*
X162791406Y-60280091D01*
X162797826Y-60305722D01*
X162801703Y-60331859D01*
X162803000Y-60358250D01*
X162803000Y-60896750D01*
X162801703Y-60923141D01*
X162797826Y-60949278D01*
X162791406Y-60974909D01*
X162782505Y-60999788D01*
X162771207Y-61023674D01*
X162757623Y-61046337D01*
X162741883Y-61067560D01*
X162724139Y-61087139D01*
X162704560Y-61104883D01*
X162683337Y-61120623D01*
X162660674Y-61134207D01*
X162636788Y-61145505D01*
X162611909Y-61154406D01*
X162586278Y-61160826D01*
X162560141Y-61164703D01*
X162533750Y-61166000D01*
X161570250Y-61166000D01*
X161543859Y-61164703D01*
X161517722Y-61160826D01*
X161492091Y-61154406D01*
X161467212Y-61145505D01*
X161443326Y-61134207D01*
X161420663Y-61120623D01*
X161399440Y-61104883D01*
X161379861Y-61087139D01*
X161362117Y-61067560D01*
X161346377Y-61046337D01*
X161332793Y-61023674D01*
X161321495Y-60999788D01*
X161312594Y-60974909D01*
X161306174Y-60949278D01*
X161302297Y-60923141D01*
X161301000Y-60896750D01*
X161301000Y-60358250D01*
X161302297Y-60331859D01*
X161306174Y-60305722D01*
X161312594Y-60280091D01*
X161321495Y-60255212D01*
X161332793Y-60231326D01*
X161346377Y-60208663D01*
X161362117Y-60187440D01*
X161379861Y-60167861D01*
X161399440Y-60150117D01*
X161420663Y-60134377D01*
X161443326Y-60120793D01*
X161467212Y-60109495D01*
X161492091Y-60100594D01*
X161517722Y-60094174D01*
X161543859Y-60090297D01*
X161570250Y-60089000D01*
X162533750Y-60089000D01*
X162560141Y-60090297D01*
X162560141Y-60090297D01*
G37*
D17*
X162052000Y-60627500D03*
D16*
G36*
X141795641Y-36625297D02*
G01*
X141821778Y-36629174D01*
X141847409Y-36635594D01*
X141872288Y-36644495D01*
X141896174Y-36655793D01*
X141918837Y-36669377D01*
X141940060Y-36685117D01*
X141959639Y-36702861D01*
X141977383Y-36722440D01*
X141993123Y-36743663D01*
X142006707Y-36766326D01*
X142018005Y-36790212D01*
X142026906Y-36815091D01*
X142033326Y-36840722D01*
X142037203Y-36866859D01*
X142038500Y-36893250D01*
X142038500Y-37431750D01*
X142037203Y-37458141D01*
X142033326Y-37484278D01*
X142026906Y-37509909D01*
X142018005Y-37534788D01*
X142006707Y-37558674D01*
X141993123Y-37581337D01*
X141977383Y-37602560D01*
X141959639Y-37622139D01*
X141940060Y-37639883D01*
X141918837Y-37655623D01*
X141896174Y-37669207D01*
X141872288Y-37680505D01*
X141847409Y-37689406D01*
X141821778Y-37695826D01*
X141795641Y-37699703D01*
X141769250Y-37701000D01*
X140805750Y-37701000D01*
X140779359Y-37699703D01*
X140753222Y-37695826D01*
X140727591Y-37689406D01*
X140702712Y-37680505D01*
X140678826Y-37669207D01*
X140656163Y-37655623D01*
X140634940Y-37639883D01*
X140615361Y-37622139D01*
X140597617Y-37602560D01*
X140581877Y-37581337D01*
X140568293Y-37558674D01*
X140556995Y-37534788D01*
X140548094Y-37509909D01*
X140541674Y-37484278D01*
X140537797Y-37458141D01*
X140536500Y-37431750D01*
X140536500Y-36893250D01*
X140537797Y-36866859D01*
X140541674Y-36840722D01*
X140548094Y-36815091D01*
X140556995Y-36790212D01*
X140568293Y-36766326D01*
X140581877Y-36743663D01*
X140597617Y-36722440D01*
X140615361Y-36702861D01*
X140634940Y-36685117D01*
X140656163Y-36669377D01*
X140678826Y-36655793D01*
X140702712Y-36644495D01*
X140727591Y-36635594D01*
X140753222Y-36629174D01*
X140779359Y-36625297D01*
X140805750Y-36624000D01*
X141769250Y-36624000D01*
X141795641Y-36625297D01*
X141795641Y-36625297D01*
G37*
D17*
X141287500Y-37162500D03*
D16*
G36*
X141795641Y-38500297D02*
G01*
X141821778Y-38504174D01*
X141847409Y-38510594D01*
X141872288Y-38519495D01*
X141896174Y-38530793D01*
X141918837Y-38544377D01*
X141940060Y-38560117D01*
X141959639Y-38577861D01*
X141977383Y-38597440D01*
X141993123Y-38618663D01*
X142006707Y-38641326D01*
X142018005Y-38665212D01*
X142026906Y-38690091D01*
X142033326Y-38715722D01*
X142037203Y-38741859D01*
X142038500Y-38768250D01*
X142038500Y-39306750D01*
X142037203Y-39333141D01*
X142033326Y-39359278D01*
X142026906Y-39384909D01*
X142018005Y-39409788D01*
X142006707Y-39433674D01*
X141993123Y-39456337D01*
X141977383Y-39477560D01*
X141959639Y-39497139D01*
X141940060Y-39514883D01*
X141918837Y-39530623D01*
X141896174Y-39544207D01*
X141872288Y-39555505D01*
X141847409Y-39564406D01*
X141821778Y-39570826D01*
X141795641Y-39574703D01*
X141769250Y-39576000D01*
X140805750Y-39576000D01*
X140779359Y-39574703D01*
X140753222Y-39570826D01*
X140727591Y-39564406D01*
X140702712Y-39555505D01*
X140678826Y-39544207D01*
X140656163Y-39530623D01*
X140634940Y-39514883D01*
X140615361Y-39497139D01*
X140597617Y-39477560D01*
X140581877Y-39456337D01*
X140568293Y-39433674D01*
X140556995Y-39409788D01*
X140548094Y-39384909D01*
X140541674Y-39359278D01*
X140537797Y-39333141D01*
X140536500Y-39306750D01*
X140536500Y-38768250D01*
X140537797Y-38741859D01*
X140541674Y-38715722D01*
X140548094Y-38690091D01*
X140556995Y-38665212D01*
X140568293Y-38641326D01*
X140581877Y-38618663D01*
X140597617Y-38597440D01*
X140615361Y-38577861D01*
X140634940Y-38560117D01*
X140656163Y-38544377D01*
X140678826Y-38530793D01*
X140702712Y-38519495D01*
X140727591Y-38510594D01*
X140753222Y-38504174D01*
X140779359Y-38500297D01*
X140805750Y-38499000D01*
X141769250Y-38499000D01*
X141795641Y-38500297D01*
X141795641Y-38500297D01*
G37*
D17*
X141287500Y-39037500D03*
D16*
G36*
X144970641Y-36625297D02*
G01*
X144996778Y-36629174D01*
X145022409Y-36635594D01*
X145047288Y-36644495D01*
X145071174Y-36655793D01*
X145093837Y-36669377D01*
X145115060Y-36685117D01*
X145134639Y-36702861D01*
X145152383Y-36722440D01*
X145168123Y-36743663D01*
X145181707Y-36766326D01*
X145193005Y-36790212D01*
X145201906Y-36815091D01*
X145208326Y-36840722D01*
X145212203Y-36866859D01*
X145213500Y-36893250D01*
X145213500Y-37431750D01*
X145212203Y-37458141D01*
X145208326Y-37484278D01*
X145201906Y-37509909D01*
X145193005Y-37534788D01*
X145181707Y-37558674D01*
X145168123Y-37581337D01*
X145152383Y-37602560D01*
X145134639Y-37622139D01*
X145115060Y-37639883D01*
X145093837Y-37655623D01*
X145071174Y-37669207D01*
X145047288Y-37680505D01*
X145022409Y-37689406D01*
X144996778Y-37695826D01*
X144970641Y-37699703D01*
X144944250Y-37701000D01*
X143980750Y-37701000D01*
X143954359Y-37699703D01*
X143928222Y-37695826D01*
X143902591Y-37689406D01*
X143877712Y-37680505D01*
X143853826Y-37669207D01*
X143831163Y-37655623D01*
X143809940Y-37639883D01*
X143790361Y-37622139D01*
X143772617Y-37602560D01*
X143756877Y-37581337D01*
X143743293Y-37558674D01*
X143731995Y-37534788D01*
X143723094Y-37509909D01*
X143716674Y-37484278D01*
X143712797Y-37458141D01*
X143711500Y-37431750D01*
X143711500Y-36893250D01*
X143712797Y-36866859D01*
X143716674Y-36840722D01*
X143723094Y-36815091D01*
X143731995Y-36790212D01*
X143743293Y-36766326D01*
X143756877Y-36743663D01*
X143772617Y-36722440D01*
X143790361Y-36702861D01*
X143809940Y-36685117D01*
X143831163Y-36669377D01*
X143853826Y-36655793D01*
X143877712Y-36644495D01*
X143902591Y-36635594D01*
X143928222Y-36629174D01*
X143954359Y-36625297D01*
X143980750Y-36624000D01*
X144944250Y-36624000D01*
X144970641Y-36625297D01*
X144970641Y-36625297D01*
G37*
D17*
X144462500Y-37162500D03*
D16*
G36*
X144970641Y-38500297D02*
G01*
X144996778Y-38504174D01*
X145022409Y-38510594D01*
X145047288Y-38519495D01*
X145071174Y-38530793D01*
X145093837Y-38544377D01*
X145115060Y-38560117D01*
X145134639Y-38577861D01*
X145152383Y-38597440D01*
X145168123Y-38618663D01*
X145181707Y-38641326D01*
X145193005Y-38665212D01*
X145201906Y-38690091D01*
X145208326Y-38715722D01*
X145212203Y-38741859D01*
X145213500Y-38768250D01*
X145213500Y-39306750D01*
X145212203Y-39333141D01*
X145208326Y-39359278D01*
X145201906Y-39384909D01*
X145193005Y-39409788D01*
X145181707Y-39433674D01*
X145168123Y-39456337D01*
X145152383Y-39477560D01*
X145134639Y-39497139D01*
X145115060Y-39514883D01*
X145093837Y-39530623D01*
X145071174Y-39544207D01*
X145047288Y-39555505D01*
X145022409Y-39564406D01*
X144996778Y-39570826D01*
X144970641Y-39574703D01*
X144944250Y-39576000D01*
X143980750Y-39576000D01*
X143954359Y-39574703D01*
X143928222Y-39570826D01*
X143902591Y-39564406D01*
X143877712Y-39555505D01*
X143853826Y-39544207D01*
X143831163Y-39530623D01*
X143809940Y-39514883D01*
X143790361Y-39497139D01*
X143772617Y-39477560D01*
X143756877Y-39456337D01*
X143743293Y-39433674D01*
X143731995Y-39409788D01*
X143723094Y-39384909D01*
X143716674Y-39359278D01*
X143712797Y-39333141D01*
X143711500Y-39306750D01*
X143711500Y-38768250D01*
X143712797Y-38741859D01*
X143716674Y-38715722D01*
X143723094Y-38690091D01*
X143731995Y-38665212D01*
X143743293Y-38641326D01*
X143756877Y-38618663D01*
X143772617Y-38597440D01*
X143790361Y-38577861D01*
X143809940Y-38560117D01*
X143831163Y-38544377D01*
X143853826Y-38530793D01*
X143877712Y-38519495D01*
X143902591Y-38510594D01*
X143928222Y-38504174D01*
X143954359Y-38500297D01*
X143980750Y-38499000D01*
X144944250Y-38499000D01*
X144970641Y-38500297D01*
X144970641Y-38500297D01*
G37*
D17*
X144462500Y-39037500D03*
D16*
G36*
X153416141Y-36625297D02*
G01*
X153442278Y-36629174D01*
X153467909Y-36635594D01*
X153492788Y-36644495D01*
X153516674Y-36655793D01*
X153539337Y-36669377D01*
X153560560Y-36685117D01*
X153580139Y-36702861D01*
X153597883Y-36722440D01*
X153613623Y-36743663D01*
X153627207Y-36766326D01*
X153638505Y-36790212D01*
X153647406Y-36815091D01*
X153653826Y-36840722D01*
X153657703Y-36866859D01*
X153659000Y-36893250D01*
X153659000Y-37431750D01*
X153657703Y-37458141D01*
X153653826Y-37484278D01*
X153647406Y-37509909D01*
X153638505Y-37534788D01*
X153627207Y-37558674D01*
X153613623Y-37581337D01*
X153597883Y-37602560D01*
X153580139Y-37622139D01*
X153560560Y-37639883D01*
X153539337Y-37655623D01*
X153516674Y-37669207D01*
X153492788Y-37680505D01*
X153467909Y-37689406D01*
X153442278Y-37695826D01*
X153416141Y-37699703D01*
X153389750Y-37701000D01*
X152426250Y-37701000D01*
X152399859Y-37699703D01*
X152373722Y-37695826D01*
X152348091Y-37689406D01*
X152323212Y-37680505D01*
X152299326Y-37669207D01*
X152276663Y-37655623D01*
X152255440Y-37639883D01*
X152235861Y-37622139D01*
X152218117Y-37602560D01*
X152202377Y-37581337D01*
X152188793Y-37558674D01*
X152177495Y-37534788D01*
X152168594Y-37509909D01*
X152162174Y-37484278D01*
X152158297Y-37458141D01*
X152157000Y-37431750D01*
X152157000Y-36893250D01*
X152158297Y-36866859D01*
X152162174Y-36840722D01*
X152168594Y-36815091D01*
X152177495Y-36790212D01*
X152188793Y-36766326D01*
X152202377Y-36743663D01*
X152218117Y-36722440D01*
X152235861Y-36702861D01*
X152255440Y-36685117D01*
X152276663Y-36669377D01*
X152299326Y-36655793D01*
X152323212Y-36644495D01*
X152348091Y-36635594D01*
X152373722Y-36629174D01*
X152399859Y-36625297D01*
X152426250Y-36624000D01*
X153389750Y-36624000D01*
X153416141Y-36625297D01*
X153416141Y-36625297D01*
G37*
D17*
X152908000Y-37162500D03*
D16*
G36*
X153416141Y-38500297D02*
G01*
X153442278Y-38504174D01*
X153467909Y-38510594D01*
X153492788Y-38519495D01*
X153516674Y-38530793D01*
X153539337Y-38544377D01*
X153560560Y-38560117D01*
X153580139Y-38577861D01*
X153597883Y-38597440D01*
X153613623Y-38618663D01*
X153627207Y-38641326D01*
X153638505Y-38665212D01*
X153647406Y-38690091D01*
X153653826Y-38715722D01*
X153657703Y-38741859D01*
X153659000Y-38768250D01*
X153659000Y-39306750D01*
X153657703Y-39333141D01*
X153653826Y-39359278D01*
X153647406Y-39384909D01*
X153638505Y-39409788D01*
X153627207Y-39433674D01*
X153613623Y-39456337D01*
X153597883Y-39477560D01*
X153580139Y-39497139D01*
X153560560Y-39514883D01*
X153539337Y-39530623D01*
X153516674Y-39544207D01*
X153492788Y-39555505D01*
X153467909Y-39564406D01*
X153442278Y-39570826D01*
X153416141Y-39574703D01*
X153389750Y-39576000D01*
X152426250Y-39576000D01*
X152399859Y-39574703D01*
X152373722Y-39570826D01*
X152348091Y-39564406D01*
X152323212Y-39555505D01*
X152299326Y-39544207D01*
X152276663Y-39530623D01*
X152255440Y-39514883D01*
X152235861Y-39497139D01*
X152218117Y-39477560D01*
X152202377Y-39456337D01*
X152188793Y-39433674D01*
X152177495Y-39409788D01*
X152168594Y-39384909D01*
X152162174Y-39359278D01*
X152158297Y-39333141D01*
X152157000Y-39306750D01*
X152157000Y-38768250D01*
X152158297Y-38741859D01*
X152162174Y-38715722D01*
X152168594Y-38690091D01*
X152177495Y-38665212D01*
X152188793Y-38641326D01*
X152202377Y-38618663D01*
X152218117Y-38597440D01*
X152235861Y-38577861D01*
X152255440Y-38560117D01*
X152276663Y-38544377D01*
X152299326Y-38530793D01*
X152323212Y-38519495D01*
X152348091Y-38510594D01*
X152373722Y-38504174D01*
X152399859Y-38500297D01*
X152426250Y-38499000D01*
X153389750Y-38499000D01*
X153416141Y-38500297D01*
X153416141Y-38500297D01*
G37*
D17*
X152908000Y-39037500D03*
D16*
G36*
X156972141Y-36625297D02*
G01*
X156998278Y-36629174D01*
X157023909Y-36635594D01*
X157048788Y-36644495D01*
X157072674Y-36655793D01*
X157095337Y-36669377D01*
X157116560Y-36685117D01*
X157136139Y-36702861D01*
X157153883Y-36722440D01*
X157169623Y-36743663D01*
X157183207Y-36766326D01*
X157194505Y-36790212D01*
X157203406Y-36815091D01*
X157209826Y-36840722D01*
X157213703Y-36866859D01*
X157215000Y-36893250D01*
X157215000Y-37431750D01*
X157213703Y-37458141D01*
X157209826Y-37484278D01*
X157203406Y-37509909D01*
X157194505Y-37534788D01*
X157183207Y-37558674D01*
X157169623Y-37581337D01*
X157153883Y-37602560D01*
X157136139Y-37622139D01*
X157116560Y-37639883D01*
X157095337Y-37655623D01*
X157072674Y-37669207D01*
X157048788Y-37680505D01*
X157023909Y-37689406D01*
X156998278Y-37695826D01*
X156972141Y-37699703D01*
X156945750Y-37701000D01*
X155982250Y-37701000D01*
X155955859Y-37699703D01*
X155929722Y-37695826D01*
X155904091Y-37689406D01*
X155879212Y-37680505D01*
X155855326Y-37669207D01*
X155832663Y-37655623D01*
X155811440Y-37639883D01*
X155791861Y-37622139D01*
X155774117Y-37602560D01*
X155758377Y-37581337D01*
X155744793Y-37558674D01*
X155733495Y-37534788D01*
X155724594Y-37509909D01*
X155718174Y-37484278D01*
X155714297Y-37458141D01*
X155713000Y-37431750D01*
X155713000Y-36893250D01*
X155714297Y-36866859D01*
X155718174Y-36840722D01*
X155724594Y-36815091D01*
X155733495Y-36790212D01*
X155744793Y-36766326D01*
X155758377Y-36743663D01*
X155774117Y-36722440D01*
X155791861Y-36702861D01*
X155811440Y-36685117D01*
X155832663Y-36669377D01*
X155855326Y-36655793D01*
X155879212Y-36644495D01*
X155904091Y-36635594D01*
X155929722Y-36629174D01*
X155955859Y-36625297D01*
X155982250Y-36624000D01*
X156945750Y-36624000D01*
X156972141Y-36625297D01*
X156972141Y-36625297D01*
G37*
D17*
X156464000Y-37162500D03*
D16*
G36*
X156972141Y-38500297D02*
G01*
X156998278Y-38504174D01*
X157023909Y-38510594D01*
X157048788Y-38519495D01*
X157072674Y-38530793D01*
X157095337Y-38544377D01*
X157116560Y-38560117D01*
X157136139Y-38577861D01*
X157153883Y-38597440D01*
X157169623Y-38618663D01*
X157183207Y-38641326D01*
X157194505Y-38665212D01*
X157203406Y-38690091D01*
X157209826Y-38715722D01*
X157213703Y-38741859D01*
X157215000Y-38768250D01*
X157215000Y-39306750D01*
X157213703Y-39333141D01*
X157209826Y-39359278D01*
X157203406Y-39384909D01*
X157194505Y-39409788D01*
X157183207Y-39433674D01*
X157169623Y-39456337D01*
X157153883Y-39477560D01*
X157136139Y-39497139D01*
X157116560Y-39514883D01*
X157095337Y-39530623D01*
X157072674Y-39544207D01*
X157048788Y-39555505D01*
X157023909Y-39564406D01*
X156998278Y-39570826D01*
X156972141Y-39574703D01*
X156945750Y-39576000D01*
X155982250Y-39576000D01*
X155955859Y-39574703D01*
X155929722Y-39570826D01*
X155904091Y-39564406D01*
X155879212Y-39555505D01*
X155855326Y-39544207D01*
X155832663Y-39530623D01*
X155811440Y-39514883D01*
X155791861Y-39497139D01*
X155774117Y-39477560D01*
X155758377Y-39456337D01*
X155744793Y-39433674D01*
X155733495Y-39409788D01*
X155724594Y-39384909D01*
X155718174Y-39359278D01*
X155714297Y-39333141D01*
X155713000Y-39306750D01*
X155713000Y-38768250D01*
X155714297Y-38741859D01*
X155718174Y-38715722D01*
X155724594Y-38690091D01*
X155733495Y-38665212D01*
X155744793Y-38641326D01*
X155758377Y-38618663D01*
X155774117Y-38597440D01*
X155791861Y-38577861D01*
X155811440Y-38560117D01*
X155832663Y-38544377D01*
X155855326Y-38530793D01*
X155879212Y-38519495D01*
X155904091Y-38510594D01*
X155929722Y-38504174D01*
X155955859Y-38500297D01*
X155982250Y-38499000D01*
X156945750Y-38499000D01*
X156972141Y-38500297D01*
X156972141Y-38500297D01*
G37*
D17*
X156464000Y-39037500D03*
D16*
G36*
X143002141Y-47231547D02*
G01*
X143028278Y-47235424D01*
X143053909Y-47241844D01*
X143078788Y-47250745D01*
X143102674Y-47262043D01*
X143125337Y-47275627D01*
X143146560Y-47291367D01*
X143166139Y-47309111D01*
X143183883Y-47328690D01*
X143199623Y-47349913D01*
X143213207Y-47372576D01*
X143224505Y-47396462D01*
X143233406Y-47421341D01*
X143239826Y-47446972D01*
X143243703Y-47473109D01*
X143245000Y-47499500D01*
X143245000Y-48038000D01*
X143243703Y-48064391D01*
X143239826Y-48090528D01*
X143233406Y-48116159D01*
X143224505Y-48141038D01*
X143213207Y-48164924D01*
X143199623Y-48187587D01*
X143183883Y-48208810D01*
X143166139Y-48228389D01*
X143146560Y-48246133D01*
X143125337Y-48261873D01*
X143102674Y-48275457D01*
X143078788Y-48286755D01*
X143053909Y-48295656D01*
X143028278Y-48302076D01*
X143002141Y-48305953D01*
X142975750Y-48307250D01*
X142012250Y-48307250D01*
X141985859Y-48305953D01*
X141959722Y-48302076D01*
X141934091Y-48295656D01*
X141909212Y-48286755D01*
X141885326Y-48275457D01*
X141862663Y-48261873D01*
X141841440Y-48246133D01*
X141821861Y-48228389D01*
X141804117Y-48208810D01*
X141788377Y-48187587D01*
X141774793Y-48164924D01*
X141763495Y-48141038D01*
X141754594Y-48116159D01*
X141748174Y-48090528D01*
X141744297Y-48064391D01*
X141743000Y-48038000D01*
X141743000Y-47499500D01*
X141744297Y-47473109D01*
X141748174Y-47446972D01*
X141754594Y-47421341D01*
X141763495Y-47396462D01*
X141774793Y-47372576D01*
X141788377Y-47349913D01*
X141804117Y-47328690D01*
X141821861Y-47309111D01*
X141841440Y-47291367D01*
X141862663Y-47275627D01*
X141885326Y-47262043D01*
X141909212Y-47250745D01*
X141934091Y-47241844D01*
X141959722Y-47235424D01*
X141985859Y-47231547D01*
X142012250Y-47230250D01*
X142975750Y-47230250D01*
X143002141Y-47231547D01*
X143002141Y-47231547D01*
G37*
D17*
X142494000Y-47768750D03*
D16*
G36*
X143002141Y-45356547D02*
G01*
X143028278Y-45360424D01*
X143053909Y-45366844D01*
X143078788Y-45375745D01*
X143102674Y-45387043D01*
X143125337Y-45400627D01*
X143146560Y-45416367D01*
X143166139Y-45434111D01*
X143183883Y-45453690D01*
X143199623Y-45474913D01*
X143213207Y-45497576D01*
X143224505Y-45521462D01*
X143233406Y-45546341D01*
X143239826Y-45571972D01*
X143243703Y-45598109D01*
X143245000Y-45624500D01*
X143245000Y-46163000D01*
X143243703Y-46189391D01*
X143239826Y-46215528D01*
X143233406Y-46241159D01*
X143224505Y-46266038D01*
X143213207Y-46289924D01*
X143199623Y-46312587D01*
X143183883Y-46333810D01*
X143166139Y-46353389D01*
X143146560Y-46371133D01*
X143125337Y-46386873D01*
X143102674Y-46400457D01*
X143078788Y-46411755D01*
X143053909Y-46420656D01*
X143028278Y-46427076D01*
X143002141Y-46430953D01*
X142975750Y-46432250D01*
X142012250Y-46432250D01*
X141985859Y-46430953D01*
X141959722Y-46427076D01*
X141934091Y-46420656D01*
X141909212Y-46411755D01*
X141885326Y-46400457D01*
X141862663Y-46386873D01*
X141841440Y-46371133D01*
X141821861Y-46353389D01*
X141804117Y-46333810D01*
X141788377Y-46312587D01*
X141774793Y-46289924D01*
X141763495Y-46266038D01*
X141754594Y-46241159D01*
X141748174Y-46215528D01*
X141744297Y-46189391D01*
X141743000Y-46163000D01*
X141743000Y-45624500D01*
X141744297Y-45598109D01*
X141748174Y-45571972D01*
X141754594Y-45546341D01*
X141763495Y-45521462D01*
X141774793Y-45497576D01*
X141788377Y-45474913D01*
X141804117Y-45453690D01*
X141821861Y-45434111D01*
X141841440Y-45416367D01*
X141862663Y-45400627D01*
X141885326Y-45387043D01*
X141909212Y-45375745D01*
X141934091Y-45366844D01*
X141959722Y-45360424D01*
X141985859Y-45356547D01*
X142012250Y-45355250D01*
X142975750Y-45355250D01*
X143002141Y-45356547D01*
X143002141Y-45356547D01*
G37*
D17*
X142494000Y-45893750D03*
D18*
X131127500Y-66357500D03*
D19*
X128587500Y-71437500D03*
D18*
X124777500Y-68897500D03*
D20*
X123507500Y-71437500D03*
X133667500Y-71437500D03*
D18*
X112077500Y-66357500D03*
D19*
X109537500Y-71437500D03*
D18*
X105727500Y-68897500D03*
D20*
X104457500Y-71437500D03*
X114617500Y-71437500D03*
D18*
X93027500Y-66357500D03*
D19*
X90487500Y-71437500D03*
D18*
X86677500Y-68897500D03*
D20*
X85407500Y-71437500D03*
X95567500Y-71437500D03*
D18*
X73977500Y-66357500D03*
D19*
X71437500Y-71437500D03*
D18*
X67627500Y-68897500D03*
D20*
X66357500Y-71437500D03*
X76517500Y-71437500D03*
D18*
X54927500Y-66357500D03*
D19*
X52387500Y-71437500D03*
D18*
X48577500Y-68897500D03*
D20*
X47307500Y-71437500D03*
X57467500Y-71437500D03*
D18*
X35877500Y-66357500D03*
D19*
X33337500Y-71437500D03*
D18*
X29527500Y-68897500D03*
D20*
X28257500Y-71437500D03*
X38417500Y-71437500D03*
D18*
X131127500Y-47307500D03*
D19*
X128587500Y-52387500D03*
D18*
X124777500Y-49847500D03*
D20*
X123507500Y-52387500D03*
X133667500Y-52387500D03*
D18*
X112077500Y-47307500D03*
D19*
X109537500Y-52387500D03*
D18*
X105727500Y-49847500D03*
D20*
X104457500Y-52387500D03*
X114617500Y-52387500D03*
D18*
X93027500Y-47307500D03*
D19*
X90487500Y-52387500D03*
D18*
X86677500Y-49847500D03*
D20*
X85407500Y-52387500D03*
X95567500Y-52387500D03*
D18*
X73977500Y-47307500D03*
D19*
X71437500Y-52387500D03*
D18*
X67627500Y-49847500D03*
D20*
X66357500Y-52387500D03*
X76517500Y-52387500D03*
D18*
X54927500Y-47307500D03*
D19*
X52387500Y-52387500D03*
D18*
X48577500Y-49847500D03*
D20*
X47307500Y-52387500D03*
X57467500Y-52387500D03*
D18*
X35877500Y-47307500D03*
D19*
X33337500Y-52387500D03*
D18*
X29527500Y-49847500D03*
D20*
X28257500Y-52387500D03*
X38417500Y-52387500D03*
D18*
X131127500Y-28257500D03*
D19*
X128587500Y-33337500D03*
D18*
X124777500Y-30797500D03*
D20*
X123507500Y-33337500D03*
X133667500Y-33337500D03*
D18*
X112077500Y-28257500D03*
D19*
X109537500Y-33337500D03*
D18*
X105727500Y-30797500D03*
D20*
X104457500Y-33337500D03*
X114617500Y-33337500D03*
D18*
X93027500Y-28257500D03*
D19*
X90487500Y-33337500D03*
D18*
X86677500Y-30797500D03*
D20*
X85407500Y-33337500D03*
X95567500Y-33337500D03*
D18*
X73977500Y-28257500D03*
D19*
X71437500Y-33337500D03*
D18*
X67627500Y-30797500D03*
D20*
X66357500Y-33337500D03*
X76517500Y-33337500D03*
D18*
X54927500Y-28257500D03*
D19*
X52387500Y-33337500D03*
D18*
X48577500Y-30797500D03*
D20*
X47307500Y-33337500D03*
X57467500Y-33337500D03*
D18*
X35877500Y-28257500D03*
D19*
X33337500Y-33337500D03*
D18*
X29527500Y-30797500D03*
D20*
X28257500Y-33337500D03*
X38417500Y-33337500D03*
D21*
X157486000Y-28713000D03*
X151886000Y-28713000D03*
D22*
X153186000Y-32588000D03*
X154186000Y-32588000D03*
X156186000Y-32588000D03*
X155186000Y-32588000D03*
D21*
X145675000Y-28681250D03*
X140075000Y-28681250D03*
D22*
X141375000Y-32556250D03*
X142375000Y-32556250D03*
X144375000Y-32556250D03*
X143375000Y-32556250D03*
D21*
X165106000Y-28681250D03*
X159506000Y-28681250D03*
D22*
X160806000Y-32556250D03*
X161806000Y-32556250D03*
X163806000Y-32556250D03*
X162806000Y-32556250D03*
D23*
X119062500Y-77993750D03*
X120012500Y-75993750D03*
X118112500Y-75993750D03*
X80962500Y-77993750D03*
X81912500Y-75993750D03*
X80012500Y-75993750D03*
X42862500Y-77993750D03*
X43812500Y-75993750D03*
X41912500Y-75993750D03*
X119062500Y-58943750D03*
X120012500Y-56943750D03*
X118112500Y-56943750D03*
X80962500Y-58943750D03*
X81912500Y-56943750D03*
X80012500Y-56943750D03*
X42862500Y-58943750D03*
X43812500Y-56943750D03*
X41912500Y-56943750D03*
X119062500Y-39893750D03*
X120012500Y-37893750D03*
X118112500Y-37893750D03*
X80962500Y-39893750D03*
X81912500Y-37893750D03*
X80012500Y-37893750D03*
X42862500Y-39893750D03*
X43812500Y-37893750D03*
X41912500Y-37893750D03*
D16*
G36*
X144526141Y-58723297D02*
G01*
X144552278Y-58727174D01*
X144577909Y-58733594D01*
X144602788Y-58742495D01*
X144626674Y-58753793D01*
X144649337Y-58767377D01*
X144670560Y-58783117D01*
X144690139Y-58800861D01*
X144707883Y-58820440D01*
X144723623Y-58841663D01*
X144737207Y-58864326D01*
X144748505Y-58888212D01*
X144757406Y-58913091D01*
X144763826Y-58938722D01*
X144767703Y-58964859D01*
X144769000Y-58991250D01*
X144769000Y-59529750D01*
X144767703Y-59556141D01*
X144763826Y-59582278D01*
X144757406Y-59607909D01*
X144748505Y-59632788D01*
X144737207Y-59656674D01*
X144723623Y-59679337D01*
X144707883Y-59700560D01*
X144690139Y-59720139D01*
X144670560Y-59737883D01*
X144649337Y-59753623D01*
X144626674Y-59767207D01*
X144602788Y-59778505D01*
X144577909Y-59787406D01*
X144552278Y-59793826D01*
X144526141Y-59797703D01*
X144499750Y-59799000D01*
X143536250Y-59799000D01*
X143509859Y-59797703D01*
X143483722Y-59793826D01*
X143458091Y-59787406D01*
X143433212Y-59778505D01*
X143409326Y-59767207D01*
X143386663Y-59753623D01*
X143365440Y-59737883D01*
X143345861Y-59720139D01*
X143328117Y-59700560D01*
X143312377Y-59679337D01*
X143298793Y-59656674D01*
X143287495Y-59632788D01*
X143278594Y-59607909D01*
X143272174Y-59582278D01*
X143268297Y-59556141D01*
X143267000Y-59529750D01*
X143267000Y-58991250D01*
X143268297Y-58964859D01*
X143272174Y-58938722D01*
X143278594Y-58913091D01*
X143287495Y-58888212D01*
X143298793Y-58864326D01*
X143312377Y-58841663D01*
X143328117Y-58820440D01*
X143345861Y-58800861D01*
X143365440Y-58783117D01*
X143386663Y-58767377D01*
X143409326Y-58753793D01*
X143433212Y-58742495D01*
X143458091Y-58733594D01*
X143483722Y-58727174D01*
X143509859Y-58723297D01*
X143536250Y-58722000D01*
X144499750Y-58722000D01*
X144526141Y-58723297D01*
X144526141Y-58723297D01*
G37*
D17*
X144018000Y-59260500D03*
D16*
G36*
X144526141Y-60598297D02*
G01*
X144552278Y-60602174D01*
X144577909Y-60608594D01*
X144602788Y-60617495D01*
X144626674Y-60628793D01*
X144649337Y-60642377D01*
X144670560Y-60658117D01*
X144690139Y-60675861D01*
X144707883Y-60695440D01*
X144723623Y-60716663D01*
X144737207Y-60739326D01*
X144748505Y-60763212D01*
X144757406Y-60788091D01*
X144763826Y-60813722D01*
X144767703Y-60839859D01*
X144769000Y-60866250D01*
X144769000Y-61404750D01*
X144767703Y-61431141D01*
X144763826Y-61457278D01*
X144757406Y-61482909D01*
X144748505Y-61507788D01*
X144737207Y-61531674D01*
X144723623Y-61554337D01*
X144707883Y-61575560D01*
X144690139Y-61595139D01*
X144670560Y-61612883D01*
X144649337Y-61628623D01*
X144626674Y-61642207D01*
X144602788Y-61653505D01*
X144577909Y-61662406D01*
X144552278Y-61668826D01*
X144526141Y-61672703D01*
X144499750Y-61674000D01*
X143536250Y-61674000D01*
X143509859Y-61672703D01*
X143483722Y-61668826D01*
X143458091Y-61662406D01*
X143433212Y-61653505D01*
X143409326Y-61642207D01*
X143386663Y-61628623D01*
X143365440Y-61612883D01*
X143345861Y-61595139D01*
X143328117Y-61575560D01*
X143312377Y-61554337D01*
X143298793Y-61531674D01*
X143287495Y-61507788D01*
X143278594Y-61482909D01*
X143272174Y-61457278D01*
X143268297Y-61431141D01*
X143267000Y-61404750D01*
X143267000Y-60866250D01*
X143268297Y-60839859D01*
X143272174Y-60813722D01*
X143278594Y-60788091D01*
X143287495Y-60763212D01*
X143298793Y-60739326D01*
X143312377Y-60716663D01*
X143328117Y-60695440D01*
X143345861Y-60675861D01*
X143365440Y-60658117D01*
X143386663Y-60642377D01*
X143409326Y-60628793D01*
X143433212Y-60617495D01*
X143458091Y-60608594D01*
X143483722Y-60602174D01*
X143509859Y-60598297D01*
X143536250Y-60597000D01*
X144499750Y-60597000D01*
X144526141Y-60598297D01*
X144526141Y-60598297D01*
G37*
D17*
X144018000Y-61135500D03*
D16*
G36*
X159189391Y-62750297D02*
G01*
X159215528Y-62754174D01*
X159241159Y-62760594D01*
X159266038Y-62769495D01*
X159289924Y-62780793D01*
X159312587Y-62794377D01*
X159333810Y-62810117D01*
X159353389Y-62827861D01*
X159371133Y-62847440D01*
X159386873Y-62868663D01*
X159400457Y-62891326D01*
X159411755Y-62915212D01*
X159420656Y-62940091D01*
X159427076Y-62965722D01*
X159430953Y-62991859D01*
X159432250Y-63018250D01*
X159432250Y-63981750D01*
X159430953Y-64008141D01*
X159427076Y-64034278D01*
X159420656Y-64059909D01*
X159411755Y-64084788D01*
X159400457Y-64108674D01*
X159386873Y-64131337D01*
X159371133Y-64152560D01*
X159353389Y-64172139D01*
X159333810Y-64189883D01*
X159312587Y-64205623D01*
X159289924Y-64219207D01*
X159266038Y-64230505D01*
X159241159Y-64239406D01*
X159215528Y-64245826D01*
X159189391Y-64249703D01*
X159163000Y-64251000D01*
X158624500Y-64251000D01*
X158598109Y-64249703D01*
X158571972Y-64245826D01*
X158546341Y-64239406D01*
X158521462Y-64230505D01*
X158497576Y-64219207D01*
X158474913Y-64205623D01*
X158453690Y-64189883D01*
X158434111Y-64172139D01*
X158416367Y-64152560D01*
X158400627Y-64131337D01*
X158387043Y-64108674D01*
X158375745Y-64084788D01*
X158366844Y-64059909D01*
X158360424Y-64034278D01*
X158356547Y-64008141D01*
X158355250Y-63981750D01*
X158355250Y-63018250D01*
X158356547Y-62991859D01*
X158360424Y-62965722D01*
X158366844Y-62940091D01*
X158375745Y-62915212D01*
X158387043Y-62891326D01*
X158400627Y-62868663D01*
X158416367Y-62847440D01*
X158434111Y-62827861D01*
X158453690Y-62810117D01*
X158474913Y-62794377D01*
X158497576Y-62780793D01*
X158521462Y-62769495D01*
X158546341Y-62760594D01*
X158571972Y-62754174D01*
X158598109Y-62750297D01*
X158624500Y-62749000D01*
X159163000Y-62749000D01*
X159189391Y-62750297D01*
X159189391Y-62750297D01*
G37*
D17*
X158893750Y-63500000D03*
D16*
G36*
X157314391Y-62750297D02*
G01*
X157340528Y-62754174D01*
X157366159Y-62760594D01*
X157391038Y-62769495D01*
X157414924Y-62780793D01*
X157437587Y-62794377D01*
X157458810Y-62810117D01*
X157478389Y-62827861D01*
X157496133Y-62847440D01*
X157511873Y-62868663D01*
X157525457Y-62891326D01*
X157536755Y-62915212D01*
X157545656Y-62940091D01*
X157552076Y-62965722D01*
X157555953Y-62991859D01*
X157557250Y-63018250D01*
X157557250Y-63981750D01*
X157555953Y-64008141D01*
X157552076Y-64034278D01*
X157545656Y-64059909D01*
X157536755Y-64084788D01*
X157525457Y-64108674D01*
X157511873Y-64131337D01*
X157496133Y-64152560D01*
X157478389Y-64172139D01*
X157458810Y-64189883D01*
X157437587Y-64205623D01*
X157414924Y-64219207D01*
X157391038Y-64230505D01*
X157366159Y-64239406D01*
X157340528Y-64245826D01*
X157314391Y-64249703D01*
X157288000Y-64251000D01*
X156749500Y-64251000D01*
X156723109Y-64249703D01*
X156696972Y-64245826D01*
X156671341Y-64239406D01*
X156646462Y-64230505D01*
X156622576Y-64219207D01*
X156599913Y-64205623D01*
X156578690Y-64189883D01*
X156559111Y-64172139D01*
X156541367Y-64152560D01*
X156525627Y-64131337D01*
X156512043Y-64108674D01*
X156500745Y-64084788D01*
X156491844Y-64059909D01*
X156485424Y-64034278D01*
X156481547Y-64008141D01*
X156480250Y-63981750D01*
X156480250Y-63018250D01*
X156481547Y-62991859D01*
X156485424Y-62965722D01*
X156491844Y-62940091D01*
X156500745Y-62915212D01*
X156512043Y-62891326D01*
X156525627Y-62868663D01*
X156541367Y-62847440D01*
X156559111Y-62827861D01*
X156578690Y-62810117D01*
X156599913Y-62794377D01*
X156622576Y-62780793D01*
X156646462Y-62769495D01*
X156671341Y-62760594D01*
X156696972Y-62754174D01*
X156723109Y-62750297D01*
X156749500Y-62749000D01*
X157288000Y-62749000D01*
X157314391Y-62750297D01*
X157314391Y-62750297D01*
G37*
D17*
X157018750Y-63500000D03*
D16*
G36*
X162433141Y-50406547D02*
G01*
X162459278Y-50410424D01*
X162484909Y-50416844D01*
X162509788Y-50425745D01*
X162533674Y-50437043D01*
X162556337Y-50450627D01*
X162577560Y-50466367D01*
X162597139Y-50484111D01*
X162614883Y-50503690D01*
X162630623Y-50524913D01*
X162644207Y-50547576D01*
X162655505Y-50571462D01*
X162664406Y-50596341D01*
X162670826Y-50621972D01*
X162674703Y-50648109D01*
X162676000Y-50674500D01*
X162676000Y-51213000D01*
X162674703Y-51239391D01*
X162670826Y-51265528D01*
X162664406Y-51291159D01*
X162655505Y-51316038D01*
X162644207Y-51339924D01*
X162630623Y-51362587D01*
X162614883Y-51383810D01*
X162597139Y-51403389D01*
X162577560Y-51421133D01*
X162556337Y-51436873D01*
X162533674Y-51450457D01*
X162509788Y-51461755D01*
X162484909Y-51470656D01*
X162459278Y-51477076D01*
X162433141Y-51480953D01*
X162406750Y-51482250D01*
X161443250Y-51482250D01*
X161416859Y-51480953D01*
X161390722Y-51477076D01*
X161365091Y-51470656D01*
X161340212Y-51461755D01*
X161316326Y-51450457D01*
X161293663Y-51436873D01*
X161272440Y-51421133D01*
X161252861Y-51403389D01*
X161235117Y-51383810D01*
X161219377Y-51362587D01*
X161205793Y-51339924D01*
X161194495Y-51316038D01*
X161185594Y-51291159D01*
X161179174Y-51265528D01*
X161175297Y-51239391D01*
X161174000Y-51213000D01*
X161174000Y-50674500D01*
X161175297Y-50648109D01*
X161179174Y-50621972D01*
X161185594Y-50596341D01*
X161194495Y-50571462D01*
X161205793Y-50547576D01*
X161219377Y-50524913D01*
X161235117Y-50503690D01*
X161252861Y-50484111D01*
X161272440Y-50466367D01*
X161293663Y-50450627D01*
X161316326Y-50437043D01*
X161340212Y-50425745D01*
X161365091Y-50416844D01*
X161390722Y-50410424D01*
X161416859Y-50406547D01*
X161443250Y-50405250D01*
X162406750Y-50405250D01*
X162433141Y-50406547D01*
X162433141Y-50406547D01*
G37*
D17*
X161925000Y-50943750D03*
D16*
G36*
X162433141Y-48531547D02*
G01*
X162459278Y-48535424D01*
X162484909Y-48541844D01*
X162509788Y-48550745D01*
X162533674Y-48562043D01*
X162556337Y-48575627D01*
X162577560Y-48591367D01*
X162597139Y-48609111D01*
X162614883Y-48628690D01*
X162630623Y-48649913D01*
X162644207Y-48672576D01*
X162655505Y-48696462D01*
X162664406Y-48721341D01*
X162670826Y-48746972D01*
X162674703Y-48773109D01*
X162676000Y-48799500D01*
X162676000Y-49338000D01*
X162674703Y-49364391D01*
X162670826Y-49390528D01*
X162664406Y-49416159D01*
X162655505Y-49441038D01*
X162644207Y-49464924D01*
X162630623Y-49487587D01*
X162614883Y-49508810D01*
X162597139Y-49528389D01*
X162577560Y-49546133D01*
X162556337Y-49561873D01*
X162533674Y-49575457D01*
X162509788Y-49586755D01*
X162484909Y-49595656D01*
X162459278Y-49602076D01*
X162433141Y-49605953D01*
X162406750Y-49607250D01*
X161443250Y-49607250D01*
X161416859Y-49605953D01*
X161390722Y-49602076D01*
X161365091Y-49595656D01*
X161340212Y-49586755D01*
X161316326Y-49575457D01*
X161293663Y-49561873D01*
X161272440Y-49546133D01*
X161252861Y-49528389D01*
X161235117Y-49508810D01*
X161219377Y-49487587D01*
X161205793Y-49464924D01*
X161194495Y-49441038D01*
X161185594Y-49416159D01*
X161179174Y-49390528D01*
X161175297Y-49364391D01*
X161174000Y-49338000D01*
X161174000Y-48799500D01*
X161175297Y-48773109D01*
X161179174Y-48746972D01*
X161185594Y-48721341D01*
X161194495Y-48696462D01*
X161205793Y-48672576D01*
X161219377Y-48649913D01*
X161235117Y-48628690D01*
X161252861Y-48609111D01*
X161272440Y-48591367D01*
X161293663Y-48575627D01*
X161316326Y-48562043D01*
X161340212Y-48550745D01*
X161365091Y-48541844D01*
X161390722Y-48535424D01*
X161416859Y-48531547D01*
X161443250Y-48530250D01*
X162406750Y-48530250D01*
X162433141Y-48531547D01*
X162433141Y-48531547D01*
G37*
D17*
X161925000Y-49068750D03*
D16*
G36*
X146558141Y-47231547D02*
G01*
X146584278Y-47235424D01*
X146609909Y-47241844D01*
X146634788Y-47250745D01*
X146658674Y-47262043D01*
X146681337Y-47275627D01*
X146702560Y-47291367D01*
X146722139Y-47309111D01*
X146739883Y-47328690D01*
X146755623Y-47349913D01*
X146769207Y-47372576D01*
X146780505Y-47396462D01*
X146789406Y-47421341D01*
X146795826Y-47446972D01*
X146799703Y-47473109D01*
X146801000Y-47499500D01*
X146801000Y-48038000D01*
X146799703Y-48064391D01*
X146795826Y-48090528D01*
X146789406Y-48116159D01*
X146780505Y-48141038D01*
X146769207Y-48164924D01*
X146755623Y-48187587D01*
X146739883Y-48208810D01*
X146722139Y-48228389D01*
X146702560Y-48246133D01*
X146681337Y-48261873D01*
X146658674Y-48275457D01*
X146634788Y-48286755D01*
X146609909Y-48295656D01*
X146584278Y-48302076D01*
X146558141Y-48305953D01*
X146531750Y-48307250D01*
X145568250Y-48307250D01*
X145541859Y-48305953D01*
X145515722Y-48302076D01*
X145490091Y-48295656D01*
X145465212Y-48286755D01*
X145441326Y-48275457D01*
X145418663Y-48261873D01*
X145397440Y-48246133D01*
X145377861Y-48228389D01*
X145360117Y-48208810D01*
X145344377Y-48187587D01*
X145330793Y-48164924D01*
X145319495Y-48141038D01*
X145310594Y-48116159D01*
X145304174Y-48090528D01*
X145300297Y-48064391D01*
X145299000Y-48038000D01*
X145299000Y-47499500D01*
X145300297Y-47473109D01*
X145304174Y-47446972D01*
X145310594Y-47421341D01*
X145319495Y-47396462D01*
X145330793Y-47372576D01*
X145344377Y-47349913D01*
X145360117Y-47328690D01*
X145377861Y-47309111D01*
X145397440Y-47291367D01*
X145418663Y-47275627D01*
X145441326Y-47262043D01*
X145465212Y-47250745D01*
X145490091Y-47241844D01*
X145515722Y-47235424D01*
X145541859Y-47231547D01*
X145568250Y-47230250D01*
X146531750Y-47230250D01*
X146558141Y-47231547D01*
X146558141Y-47231547D01*
G37*
D17*
X146050000Y-47768750D03*
D16*
G36*
X146558141Y-45356547D02*
G01*
X146584278Y-45360424D01*
X146609909Y-45366844D01*
X146634788Y-45375745D01*
X146658674Y-45387043D01*
X146681337Y-45400627D01*
X146702560Y-45416367D01*
X146722139Y-45434111D01*
X146739883Y-45453690D01*
X146755623Y-45474913D01*
X146769207Y-45497576D01*
X146780505Y-45521462D01*
X146789406Y-45546341D01*
X146795826Y-45571972D01*
X146799703Y-45598109D01*
X146801000Y-45624500D01*
X146801000Y-46163000D01*
X146799703Y-46189391D01*
X146795826Y-46215528D01*
X146789406Y-46241159D01*
X146780505Y-46266038D01*
X146769207Y-46289924D01*
X146755623Y-46312587D01*
X146739883Y-46333810D01*
X146722139Y-46353389D01*
X146702560Y-46371133D01*
X146681337Y-46386873D01*
X146658674Y-46400457D01*
X146634788Y-46411755D01*
X146609909Y-46420656D01*
X146584278Y-46427076D01*
X146558141Y-46430953D01*
X146531750Y-46432250D01*
X145568250Y-46432250D01*
X145541859Y-46430953D01*
X145515722Y-46427076D01*
X145490091Y-46420656D01*
X145465212Y-46411755D01*
X145441326Y-46400457D01*
X145418663Y-46386873D01*
X145397440Y-46371133D01*
X145377861Y-46353389D01*
X145360117Y-46333810D01*
X145344377Y-46312587D01*
X145330793Y-46289924D01*
X145319495Y-46266038D01*
X145310594Y-46241159D01*
X145304174Y-46215528D01*
X145300297Y-46189391D01*
X145299000Y-46163000D01*
X145299000Y-45624500D01*
X145300297Y-45598109D01*
X145304174Y-45571972D01*
X145310594Y-45546341D01*
X145319495Y-45521462D01*
X145330793Y-45497576D01*
X145344377Y-45474913D01*
X145360117Y-45453690D01*
X145377861Y-45434111D01*
X145397440Y-45416367D01*
X145418663Y-45400627D01*
X145441326Y-45387043D01*
X145465212Y-45375745D01*
X145490091Y-45366844D01*
X145515722Y-45360424D01*
X145541859Y-45356547D01*
X145568250Y-45355250D01*
X146531750Y-45355250D01*
X146558141Y-45356547D01*
X146558141Y-45356547D01*
G37*
D17*
X146050000Y-45893750D03*
D16*
G36*
X143026891Y-54019047D02*
G01*
X143053028Y-54022924D01*
X143078659Y-54029344D01*
X143103538Y-54038245D01*
X143127424Y-54049543D01*
X143150087Y-54063127D01*
X143171310Y-54078867D01*
X143190889Y-54096611D01*
X143208633Y-54116190D01*
X143224373Y-54137413D01*
X143237957Y-54160076D01*
X143249255Y-54183962D01*
X143258156Y-54208841D01*
X143264576Y-54234472D01*
X143268453Y-54260609D01*
X143269750Y-54287000D01*
X143269750Y-55250500D01*
X143268453Y-55276891D01*
X143264576Y-55303028D01*
X143258156Y-55328659D01*
X143249255Y-55353538D01*
X143237957Y-55377424D01*
X143224373Y-55400087D01*
X143208633Y-55421310D01*
X143190889Y-55440889D01*
X143171310Y-55458633D01*
X143150087Y-55474373D01*
X143127424Y-55487957D01*
X143103538Y-55499255D01*
X143078659Y-55508156D01*
X143053028Y-55514576D01*
X143026891Y-55518453D01*
X143000500Y-55519750D01*
X142462000Y-55519750D01*
X142435609Y-55518453D01*
X142409472Y-55514576D01*
X142383841Y-55508156D01*
X142358962Y-55499255D01*
X142335076Y-55487957D01*
X142312413Y-55474373D01*
X142291190Y-55458633D01*
X142271611Y-55440889D01*
X142253867Y-55421310D01*
X142238127Y-55400087D01*
X142224543Y-55377424D01*
X142213245Y-55353538D01*
X142204344Y-55328659D01*
X142197924Y-55303028D01*
X142194047Y-55276891D01*
X142192750Y-55250500D01*
X142192750Y-54287000D01*
X142194047Y-54260609D01*
X142197924Y-54234472D01*
X142204344Y-54208841D01*
X142213245Y-54183962D01*
X142224543Y-54160076D01*
X142238127Y-54137413D01*
X142253867Y-54116190D01*
X142271611Y-54096611D01*
X142291190Y-54078867D01*
X142312413Y-54063127D01*
X142335076Y-54049543D01*
X142358962Y-54038245D01*
X142383841Y-54029344D01*
X142409472Y-54022924D01*
X142435609Y-54019047D01*
X142462000Y-54017750D01*
X143000500Y-54017750D01*
X143026891Y-54019047D01*
X143026891Y-54019047D01*
G37*
D17*
X142731250Y-54768750D03*
D16*
G36*
X144901891Y-54019047D02*
G01*
X144928028Y-54022924D01*
X144953659Y-54029344D01*
X144978538Y-54038245D01*
X145002424Y-54049543D01*
X145025087Y-54063127D01*
X145046310Y-54078867D01*
X145065889Y-54096611D01*
X145083633Y-54116190D01*
X145099373Y-54137413D01*
X145112957Y-54160076D01*
X145124255Y-54183962D01*
X145133156Y-54208841D01*
X145139576Y-54234472D01*
X145143453Y-54260609D01*
X145144750Y-54287000D01*
X145144750Y-55250500D01*
X145143453Y-55276891D01*
X145139576Y-55303028D01*
X145133156Y-55328659D01*
X145124255Y-55353538D01*
X145112957Y-55377424D01*
X145099373Y-55400087D01*
X145083633Y-55421310D01*
X145065889Y-55440889D01*
X145046310Y-55458633D01*
X145025087Y-55474373D01*
X145002424Y-55487957D01*
X144978538Y-55499255D01*
X144953659Y-55508156D01*
X144928028Y-55514576D01*
X144901891Y-55518453D01*
X144875500Y-55519750D01*
X144337000Y-55519750D01*
X144310609Y-55518453D01*
X144284472Y-55514576D01*
X144258841Y-55508156D01*
X144233962Y-55499255D01*
X144210076Y-55487957D01*
X144187413Y-55474373D01*
X144166190Y-55458633D01*
X144146611Y-55440889D01*
X144128867Y-55421310D01*
X144113127Y-55400087D01*
X144099543Y-55377424D01*
X144088245Y-55353538D01*
X144079344Y-55328659D01*
X144072924Y-55303028D01*
X144069047Y-55276891D01*
X144067750Y-55250500D01*
X144067750Y-54287000D01*
X144069047Y-54260609D01*
X144072924Y-54234472D01*
X144079344Y-54208841D01*
X144088245Y-54183962D01*
X144099543Y-54160076D01*
X144113127Y-54137413D01*
X144128867Y-54116190D01*
X144146611Y-54096611D01*
X144166190Y-54078867D01*
X144187413Y-54063127D01*
X144210076Y-54049543D01*
X144233962Y-54038245D01*
X144258841Y-54029344D01*
X144284472Y-54022924D01*
X144310609Y-54019047D01*
X144337000Y-54017750D01*
X144875500Y-54017750D01*
X144901891Y-54019047D01*
X144901891Y-54019047D01*
G37*
D17*
X144606250Y-54768750D03*
M02*
