G04 #@! TF.GenerationSoftware,KiCad,Pcbnew,(5.1.2)-2*
G04 #@! TF.CreationDate,2020-07-12T21:55:24+03:00*
G04 #@! TF.ProjectId,KB-Prototype,4b422d50-726f-4746-9f74-7970652e6b69,rev?*
G04 #@! TF.SameCoordinates,Original*
G04 #@! TF.FileFunction,Soldermask,Top*
G04 #@! TF.FilePolarity,Negative*
%FSLAX46Y46*%
G04 Gerber Fmt 4.6, Leading zero omitted, Abs format (unit mm)*
G04 Created by KiCad (PCBNEW (5.1.2)-2) date 2020-07-12 21:55:24*
%MOMM*%
%LPD*%
G04 APERTURE LIST*
%ADD10C,0.100000*%
G04 APERTURE END LIST*
D10*
G36*
X27195331Y-76373211D02*
G01*
X27523092Y-76508974D01*
X27818070Y-76706072D01*
X28068928Y-76956930D01*
X28266026Y-77251908D01*
X28401789Y-77579669D01*
X28471000Y-77927616D01*
X28471000Y-78282384D01*
X28401789Y-78630331D01*
X28266026Y-78958092D01*
X28068928Y-79253070D01*
X27818070Y-79503928D01*
X27523092Y-79701026D01*
X27195331Y-79836789D01*
X26847384Y-79906000D01*
X26492616Y-79906000D01*
X26144669Y-79836789D01*
X25816908Y-79701026D01*
X25521930Y-79503928D01*
X25271072Y-79253070D01*
X25073974Y-78958092D01*
X24938211Y-78630331D01*
X24869000Y-78282384D01*
X24869000Y-77927616D01*
X24938211Y-77579669D01*
X25073974Y-77251908D01*
X25271072Y-76956930D01*
X25521930Y-76706072D01*
X25816908Y-76508974D01*
X26144669Y-76373211D01*
X26492616Y-76304000D01*
X26847384Y-76304000D01*
X27195331Y-76373211D01*
X27195331Y-76373211D01*
G37*
G36*
X166387331Y-76119211D02*
G01*
X166715092Y-76254974D01*
X167010070Y-76452072D01*
X167260928Y-76702930D01*
X167458026Y-76997908D01*
X167593789Y-77325669D01*
X167663000Y-77673616D01*
X167663000Y-78028384D01*
X167593789Y-78376331D01*
X167458026Y-78704092D01*
X167260928Y-78999070D01*
X167010070Y-79249928D01*
X166715092Y-79447026D01*
X166387331Y-79582789D01*
X166039384Y-79652000D01*
X165684616Y-79652000D01*
X165336669Y-79582789D01*
X165008908Y-79447026D01*
X164713930Y-79249928D01*
X164463072Y-78999070D01*
X164265974Y-78704092D01*
X164130211Y-78376331D01*
X164061000Y-78028384D01*
X164061000Y-77673616D01*
X164130211Y-77325669D01*
X164265974Y-76997908D01*
X164463072Y-76702930D01*
X164713930Y-76452072D01*
X165008908Y-76254974D01*
X165336669Y-76119211D01*
X165684616Y-76050000D01*
X166039384Y-76050000D01*
X166387331Y-76119211D01*
X166387331Y-76119211D01*
G37*
G36*
X151244000Y-75095000D02*
G01*
X149342000Y-75095000D01*
X149342000Y-73893000D01*
X151244000Y-73893000D01*
X151244000Y-75095000D01*
X151244000Y-75095000D01*
G37*
G36*
X145044000Y-75095000D02*
G01*
X143142000Y-75095000D01*
X143142000Y-73893000D01*
X145044000Y-73893000D01*
X145044000Y-75095000D01*
X145044000Y-75095000D01*
G37*
G36*
X110133974Y-69471184D02*
G01*
X110351974Y-69561483D01*
X110506123Y-69625333D01*
X110841048Y-69849123D01*
X111125877Y-70133952D01*
X111349667Y-70468877D01*
X111382062Y-70547086D01*
X111503816Y-70841026D01*
X111582400Y-71236094D01*
X111582400Y-71638906D01*
X111503816Y-72033974D01*
X111452951Y-72156772D01*
X111349667Y-72406123D01*
X111125877Y-72741048D01*
X110841048Y-73025877D01*
X110506123Y-73249667D01*
X110351974Y-73313517D01*
X110133974Y-73403816D01*
X109738906Y-73482400D01*
X109336094Y-73482400D01*
X108941026Y-73403816D01*
X108723026Y-73313517D01*
X108568877Y-73249667D01*
X108233952Y-73025877D01*
X107949123Y-72741048D01*
X107725333Y-72406123D01*
X107622049Y-72156772D01*
X107571184Y-72033974D01*
X107492600Y-71638906D01*
X107492600Y-71236094D01*
X107571184Y-70841026D01*
X107692938Y-70547086D01*
X107725333Y-70468877D01*
X107949123Y-70133952D01*
X108233952Y-69849123D01*
X108568877Y-69625333D01*
X108723026Y-69561483D01*
X108941026Y-69471184D01*
X109336094Y-69392600D01*
X109738906Y-69392600D01*
X110133974Y-69471184D01*
X110133974Y-69471184D01*
G37*
G36*
X33933974Y-69471184D02*
G01*
X34151974Y-69561483D01*
X34306123Y-69625333D01*
X34641048Y-69849123D01*
X34925877Y-70133952D01*
X35149667Y-70468877D01*
X35182062Y-70547086D01*
X35303816Y-70841026D01*
X35382400Y-71236094D01*
X35382400Y-71638906D01*
X35303816Y-72033974D01*
X35252951Y-72156772D01*
X35149667Y-72406123D01*
X34925877Y-72741048D01*
X34641048Y-73025877D01*
X34306123Y-73249667D01*
X34151974Y-73313517D01*
X33933974Y-73403816D01*
X33538906Y-73482400D01*
X33136094Y-73482400D01*
X32741026Y-73403816D01*
X32523026Y-73313517D01*
X32368877Y-73249667D01*
X32033952Y-73025877D01*
X31749123Y-72741048D01*
X31525333Y-72406123D01*
X31422049Y-72156772D01*
X31371184Y-72033974D01*
X31292600Y-71638906D01*
X31292600Y-71236094D01*
X31371184Y-70841026D01*
X31492938Y-70547086D01*
X31525333Y-70468877D01*
X31749123Y-70133952D01*
X32033952Y-69849123D01*
X32368877Y-69625333D01*
X32523026Y-69561483D01*
X32741026Y-69471184D01*
X33136094Y-69392600D01*
X33538906Y-69392600D01*
X33933974Y-69471184D01*
X33933974Y-69471184D01*
G37*
G36*
X52983974Y-69471184D02*
G01*
X53201974Y-69561483D01*
X53356123Y-69625333D01*
X53691048Y-69849123D01*
X53975877Y-70133952D01*
X54199667Y-70468877D01*
X54232062Y-70547086D01*
X54353816Y-70841026D01*
X54432400Y-71236094D01*
X54432400Y-71638906D01*
X54353816Y-72033974D01*
X54302951Y-72156772D01*
X54199667Y-72406123D01*
X53975877Y-72741048D01*
X53691048Y-73025877D01*
X53356123Y-73249667D01*
X53201974Y-73313517D01*
X52983974Y-73403816D01*
X52588906Y-73482400D01*
X52186094Y-73482400D01*
X51791026Y-73403816D01*
X51573026Y-73313517D01*
X51418877Y-73249667D01*
X51083952Y-73025877D01*
X50799123Y-72741048D01*
X50575333Y-72406123D01*
X50472049Y-72156772D01*
X50421184Y-72033974D01*
X50342600Y-71638906D01*
X50342600Y-71236094D01*
X50421184Y-70841026D01*
X50542938Y-70547086D01*
X50575333Y-70468877D01*
X50799123Y-70133952D01*
X51083952Y-69849123D01*
X51418877Y-69625333D01*
X51573026Y-69561483D01*
X51791026Y-69471184D01*
X52186094Y-69392600D01*
X52588906Y-69392600D01*
X52983974Y-69471184D01*
X52983974Y-69471184D01*
G37*
G36*
X72033974Y-69471184D02*
G01*
X72251974Y-69561483D01*
X72406123Y-69625333D01*
X72741048Y-69849123D01*
X73025877Y-70133952D01*
X73249667Y-70468877D01*
X73282062Y-70547086D01*
X73403816Y-70841026D01*
X73482400Y-71236094D01*
X73482400Y-71638906D01*
X73403816Y-72033974D01*
X73352951Y-72156772D01*
X73249667Y-72406123D01*
X73025877Y-72741048D01*
X72741048Y-73025877D01*
X72406123Y-73249667D01*
X72251974Y-73313517D01*
X72033974Y-73403816D01*
X71638906Y-73482400D01*
X71236094Y-73482400D01*
X70841026Y-73403816D01*
X70623026Y-73313517D01*
X70468877Y-73249667D01*
X70133952Y-73025877D01*
X69849123Y-72741048D01*
X69625333Y-72406123D01*
X69522049Y-72156772D01*
X69471184Y-72033974D01*
X69392600Y-71638906D01*
X69392600Y-71236094D01*
X69471184Y-70841026D01*
X69592938Y-70547086D01*
X69625333Y-70468877D01*
X69849123Y-70133952D01*
X70133952Y-69849123D01*
X70468877Y-69625333D01*
X70623026Y-69561483D01*
X70841026Y-69471184D01*
X71236094Y-69392600D01*
X71638906Y-69392600D01*
X72033974Y-69471184D01*
X72033974Y-69471184D01*
G37*
G36*
X91083974Y-69471184D02*
G01*
X91301974Y-69561483D01*
X91456123Y-69625333D01*
X91791048Y-69849123D01*
X92075877Y-70133952D01*
X92299667Y-70468877D01*
X92332062Y-70547086D01*
X92453816Y-70841026D01*
X92532400Y-71236094D01*
X92532400Y-71638906D01*
X92453816Y-72033974D01*
X92402951Y-72156772D01*
X92299667Y-72406123D01*
X92075877Y-72741048D01*
X91791048Y-73025877D01*
X91456123Y-73249667D01*
X91301974Y-73313517D01*
X91083974Y-73403816D01*
X90688906Y-73482400D01*
X90286094Y-73482400D01*
X89891026Y-73403816D01*
X89673026Y-73313517D01*
X89518877Y-73249667D01*
X89183952Y-73025877D01*
X88899123Y-72741048D01*
X88675333Y-72406123D01*
X88572049Y-72156772D01*
X88521184Y-72033974D01*
X88442600Y-71638906D01*
X88442600Y-71236094D01*
X88521184Y-70841026D01*
X88642938Y-70547086D01*
X88675333Y-70468877D01*
X88899123Y-70133952D01*
X89183952Y-69849123D01*
X89518877Y-69625333D01*
X89673026Y-69561483D01*
X89891026Y-69471184D01*
X90286094Y-69392600D01*
X90688906Y-69392600D01*
X91083974Y-69471184D01*
X91083974Y-69471184D01*
G37*
G36*
X129183974Y-69471184D02*
G01*
X129401974Y-69561483D01*
X129556123Y-69625333D01*
X129891048Y-69849123D01*
X130175877Y-70133952D01*
X130399667Y-70468877D01*
X130432062Y-70547086D01*
X130553816Y-70841026D01*
X130632400Y-71236094D01*
X130632400Y-71638906D01*
X130553816Y-72033974D01*
X130502951Y-72156772D01*
X130399667Y-72406123D01*
X130175877Y-72741048D01*
X129891048Y-73025877D01*
X129556123Y-73249667D01*
X129401974Y-73313517D01*
X129183974Y-73403816D01*
X128788906Y-73482400D01*
X128386094Y-73482400D01*
X127991026Y-73403816D01*
X127773026Y-73313517D01*
X127618877Y-73249667D01*
X127283952Y-73025877D01*
X126999123Y-72741048D01*
X126775333Y-72406123D01*
X126672049Y-72156772D01*
X126621184Y-72033974D01*
X126542600Y-71638906D01*
X126542600Y-71236094D01*
X126621184Y-70841026D01*
X126742938Y-70547086D01*
X126775333Y-70468877D01*
X126999123Y-70133952D01*
X127283952Y-69849123D01*
X127618877Y-69625333D01*
X127773026Y-69561483D01*
X127991026Y-69471184D01*
X128386094Y-69392600D01*
X128788906Y-69392600D01*
X129183974Y-69471184D01*
X129183974Y-69471184D01*
G37*
G36*
X47577604Y-70547085D02*
G01*
X47746126Y-70616889D01*
X47897791Y-70718228D01*
X48026772Y-70847209D01*
X48128111Y-70998874D01*
X48197915Y-71167396D01*
X48233500Y-71346297D01*
X48233500Y-71528703D01*
X48197915Y-71707604D01*
X48128111Y-71876126D01*
X48026772Y-72027791D01*
X47897791Y-72156772D01*
X47746126Y-72258111D01*
X47577604Y-72327915D01*
X47398703Y-72363500D01*
X47216297Y-72363500D01*
X47037396Y-72327915D01*
X46868874Y-72258111D01*
X46717209Y-72156772D01*
X46588228Y-72027791D01*
X46486889Y-71876126D01*
X46417085Y-71707604D01*
X46381500Y-71528703D01*
X46381500Y-71346297D01*
X46417085Y-71167396D01*
X46486889Y-70998874D01*
X46588228Y-70847209D01*
X46717209Y-70718228D01*
X46868874Y-70616889D01*
X47037396Y-70547085D01*
X47216297Y-70511500D01*
X47398703Y-70511500D01*
X47577604Y-70547085D01*
X47577604Y-70547085D01*
G37*
G36*
X38687604Y-70547085D02*
G01*
X38856126Y-70616889D01*
X39007791Y-70718228D01*
X39136772Y-70847209D01*
X39238111Y-70998874D01*
X39307915Y-71167396D01*
X39343500Y-71346297D01*
X39343500Y-71528703D01*
X39307915Y-71707604D01*
X39238111Y-71876126D01*
X39136772Y-72027791D01*
X39007791Y-72156772D01*
X38856126Y-72258111D01*
X38687604Y-72327915D01*
X38508703Y-72363500D01*
X38326297Y-72363500D01*
X38147396Y-72327915D01*
X37978874Y-72258111D01*
X37827209Y-72156772D01*
X37698228Y-72027791D01*
X37596889Y-71876126D01*
X37527085Y-71707604D01*
X37491500Y-71528703D01*
X37491500Y-71346297D01*
X37527085Y-71167396D01*
X37596889Y-70998874D01*
X37698228Y-70847209D01*
X37827209Y-70718228D01*
X37978874Y-70616889D01*
X38147396Y-70547085D01*
X38326297Y-70511500D01*
X38508703Y-70511500D01*
X38687604Y-70547085D01*
X38687604Y-70547085D01*
G37*
G36*
X28527604Y-70547085D02*
G01*
X28696126Y-70616889D01*
X28847791Y-70718228D01*
X28976772Y-70847209D01*
X29078111Y-70998874D01*
X29147915Y-71167396D01*
X29183500Y-71346297D01*
X29183500Y-71528703D01*
X29147915Y-71707604D01*
X29078111Y-71876126D01*
X28976772Y-72027791D01*
X28847791Y-72156772D01*
X28696126Y-72258111D01*
X28527604Y-72327915D01*
X28348703Y-72363500D01*
X28166297Y-72363500D01*
X27987396Y-72327915D01*
X27818874Y-72258111D01*
X27667209Y-72156772D01*
X27538228Y-72027791D01*
X27436889Y-71876126D01*
X27367085Y-71707604D01*
X27331500Y-71528703D01*
X27331500Y-71346297D01*
X27367085Y-71167396D01*
X27436889Y-70998874D01*
X27538228Y-70847209D01*
X27667209Y-70718228D01*
X27818874Y-70616889D01*
X27987396Y-70547085D01*
X28166297Y-70511500D01*
X28348703Y-70511500D01*
X28527604Y-70547085D01*
X28527604Y-70547085D01*
G37*
G36*
X57737604Y-70547085D02*
G01*
X57906126Y-70616889D01*
X58057791Y-70718228D01*
X58186772Y-70847209D01*
X58288111Y-70998874D01*
X58357915Y-71167396D01*
X58393500Y-71346297D01*
X58393500Y-71528703D01*
X58357915Y-71707604D01*
X58288111Y-71876126D01*
X58186772Y-72027791D01*
X58057791Y-72156772D01*
X57906126Y-72258111D01*
X57737604Y-72327915D01*
X57558703Y-72363500D01*
X57376297Y-72363500D01*
X57197396Y-72327915D01*
X57028874Y-72258111D01*
X56877209Y-72156772D01*
X56748228Y-72027791D01*
X56646889Y-71876126D01*
X56577085Y-71707604D01*
X56541500Y-71528703D01*
X56541500Y-71346297D01*
X56577085Y-71167396D01*
X56646889Y-70998874D01*
X56748228Y-70847209D01*
X56877209Y-70718228D01*
X57028874Y-70616889D01*
X57197396Y-70547085D01*
X57376297Y-70511500D01*
X57558703Y-70511500D01*
X57737604Y-70547085D01*
X57737604Y-70547085D01*
G37*
G36*
X76787604Y-70547085D02*
G01*
X76956126Y-70616889D01*
X77107791Y-70718228D01*
X77236772Y-70847209D01*
X77338111Y-70998874D01*
X77407915Y-71167396D01*
X77443500Y-71346297D01*
X77443500Y-71528703D01*
X77407915Y-71707604D01*
X77338111Y-71876126D01*
X77236772Y-72027791D01*
X77107791Y-72156772D01*
X76956126Y-72258111D01*
X76787604Y-72327915D01*
X76608703Y-72363500D01*
X76426297Y-72363500D01*
X76247396Y-72327915D01*
X76078874Y-72258111D01*
X75927209Y-72156772D01*
X75798228Y-72027791D01*
X75696889Y-71876126D01*
X75627085Y-71707604D01*
X75591500Y-71528703D01*
X75591500Y-71346297D01*
X75627085Y-71167396D01*
X75696889Y-70998874D01*
X75798228Y-70847209D01*
X75927209Y-70718228D01*
X76078874Y-70616889D01*
X76247396Y-70547085D01*
X76426297Y-70511500D01*
X76608703Y-70511500D01*
X76787604Y-70547085D01*
X76787604Y-70547085D01*
G37*
G36*
X66627604Y-70547085D02*
G01*
X66796126Y-70616889D01*
X66947791Y-70718228D01*
X67076772Y-70847209D01*
X67178111Y-70998874D01*
X67247915Y-71167396D01*
X67283500Y-71346297D01*
X67283500Y-71528703D01*
X67247915Y-71707604D01*
X67178111Y-71876126D01*
X67076772Y-72027791D01*
X66947791Y-72156772D01*
X66796126Y-72258111D01*
X66627604Y-72327915D01*
X66448703Y-72363500D01*
X66266297Y-72363500D01*
X66087396Y-72327915D01*
X65918874Y-72258111D01*
X65767209Y-72156772D01*
X65638228Y-72027791D01*
X65536889Y-71876126D01*
X65467085Y-71707604D01*
X65431500Y-71528703D01*
X65431500Y-71346297D01*
X65467085Y-71167396D01*
X65536889Y-70998874D01*
X65638228Y-70847209D01*
X65767209Y-70718228D01*
X65918874Y-70616889D01*
X66087396Y-70547085D01*
X66266297Y-70511500D01*
X66448703Y-70511500D01*
X66627604Y-70547085D01*
X66627604Y-70547085D01*
G37*
G36*
X85677604Y-70547085D02*
G01*
X85846126Y-70616889D01*
X85997791Y-70718228D01*
X86126772Y-70847209D01*
X86228111Y-70998874D01*
X86297915Y-71167396D01*
X86333500Y-71346297D01*
X86333500Y-71528703D01*
X86297915Y-71707604D01*
X86228111Y-71876126D01*
X86126772Y-72027791D01*
X85997791Y-72156772D01*
X85846126Y-72258111D01*
X85677604Y-72327915D01*
X85498703Y-72363500D01*
X85316297Y-72363500D01*
X85137396Y-72327915D01*
X84968874Y-72258111D01*
X84817209Y-72156772D01*
X84688228Y-72027791D01*
X84586889Y-71876126D01*
X84517085Y-71707604D01*
X84481500Y-71528703D01*
X84481500Y-71346297D01*
X84517085Y-71167396D01*
X84586889Y-70998874D01*
X84688228Y-70847209D01*
X84817209Y-70718228D01*
X84968874Y-70616889D01*
X85137396Y-70547085D01*
X85316297Y-70511500D01*
X85498703Y-70511500D01*
X85677604Y-70547085D01*
X85677604Y-70547085D01*
G37*
G36*
X95837604Y-70547085D02*
G01*
X96006126Y-70616889D01*
X96157791Y-70718228D01*
X96286772Y-70847209D01*
X96388111Y-70998874D01*
X96457915Y-71167396D01*
X96493500Y-71346297D01*
X96493500Y-71528703D01*
X96457915Y-71707604D01*
X96388111Y-71876126D01*
X96286772Y-72027791D01*
X96157791Y-72156772D01*
X96006126Y-72258111D01*
X95837604Y-72327915D01*
X95658703Y-72363500D01*
X95476297Y-72363500D01*
X95297396Y-72327915D01*
X95128874Y-72258111D01*
X94977209Y-72156772D01*
X94848228Y-72027791D01*
X94746889Y-71876126D01*
X94677085Y-71707604D01*
X94641500Y-71528703D01*
X94641500Y-71346297D01*
X94677085Y-71167396D01*
X94746889Y-70998874D01*
X94848228Y-70847209D01*
X94977209Y-70718228D01*
X95128874Y-70616889D01*
X95297396Y-70547085D01*
X95476297Y-70511500D01*
X95658703Y-70511500D01*
X95837604Y-70547085D01*
X95837604Y-70547085D01*
G37*
G36*
X123777604Y-70547085D02*
G01*
X123946126Y-70616889D01*
X124097791Y-70718228D01*
X124226772Y-70847209D01*
X124328111Y-70998874D01*
X124397915Y-71167396D01*
X124433500Y-71346297D01*
X124433500Y-71528703D01*
X124397915Y-71707604D01*
X124328111Y-71876126D01*
X124226772Y-72027791D01*
X124097791Y-72156772D01*
X123946126Y-72258111D01*
X123777604Y-72327915D01*
X123598703Y-72363500D01*
X123416297Y-72363500D01*
X123237396Y-72327915D01*
X123068874Y-72258111D01*
X122917209Y-72156772D01*
X122788228Y-72027791D01*
X122686889Y-71876126D01*
X122617085Y-71707604D01*
X122581500Y-71528703D01*
X122581500Y-71346297D01*
X122617085Y-71167396D01*
X122686889Y-70998874D01*
X122788228Y-70847209D01*
X122917209Y-70718228D01*
X123068874Y-70616889D01*
X123237396Y-70547085D01*
X123416297Y-70511500D01*
X123598703Y-70511500D01*
X123777604Y-70547085D01*
X123777604Y-70547085D01*
G37*
G36*
X114887604Y-70547085D02*
G01*
X115056126Y-70616889D01*
X115207791Y-70718228D01*
X115336772Y-70847209D01*
X115438111Y-70998874D01*
X115507915Y-71167396D01*
X115543500Y-71346297D01*
X115543500Y-71528703D01*
X115507915Y-71707604D01*
X115438111Y-71876126D01*
X115336772Y-72027791D01*
X115207791Y-72156772D01*
X115056126Y-72258111D01*
X114887604Y-72327915D01*
X114708703Y-72363500D01*
X114526297Y-72363500D01*
X114347396Y-72327915D01*
X114178874Y-72258111D01*
X114027209Y-72156772D01*
X113898228Y-72027791D01*
X113796889Y-71876126D01*
X113727085Y-71707604D01*
X113691500Y-71528703D01*
X113691500Y-71346297D01*
X113727085Y-71167396D01*
X113796889Y-70998874D01*
X113898228Y-70847209D01*
X114027209Y-70718228D01*
X114178874Y-70616889D01*
X114347396Y-70547085D01*
X114526297Y-70511500D01*
X114708703Y-70511500D01*
X114887604Y-70547085D01*
X114887604Y-70547085D01*
G37*
G36*
X104727604Y-70547085D02*
G01*
X104896126Y-70616889D01*
X105047791Y-70718228D01*
X105176772Y-70847209D01*
X105278111Y-70998874D01*
X105347915Y-71167396D01*
X105383500Y-71346297D01*
X105383500Y-71528703D01*
X105347915Y-71707604D01*
X105278111Y-71876126D01*
X105176772Y-72027791D01*
X105047791Y-72156772D01*
X104896126Y-72258111D01*
X104727604Y-72327915D01*
X104548703Y-72363500D01*
X104366297Y-72363500D01*
X104187396Y-72327915D01*
X104018874Y-72258111D01*
X103867209Y-72156772D01*
X103738228Y-72027791D01*
X103636889Y-71876126D01*
X103567085Y-71707604D01*
X103531500Y-71528703D01*
X103531500Y-71346297D01*
X103567085Y-71167396D01*
X103636889Y-70998874D01*
X103738228Y-70847209D01*
X103867209Y-70718228D01*
X104018874Y-70616889D01*
X104187396Y-70547085D01*
X104366297Y-70511500D01*
X104548703Y-70511500D01*
X104727604Y-70547085D01*
X104727604Y-70547085D01*
G37*
G36*
X133937604Y-70547085D02*
G01*
X134106126Y-70616889D01*
X134257791Y-70718228D01*
X134386772Y-70847209D01*
X134488111Y-70998874D01*
X134557915Y-71167396D01*
X134593500Y-71346297D01*
X134593500Y-71528703D01*
X134557915Y-71707604D01*
X134488111Y-71876126D01*
X134386772Y-72027791D01*
X134257791Y-72156772D01*
X134106126Y-72258111D01*
X133937604Y-72327915D01*
X133758703Y-72363500D01*
X133576297Y-72363500D01*
X133397396Y-72327915D01*
X133228874Y-72258111D01*
X133077209Y-72156772D01*
X132948228Y-72027791D01*
X132846889Y-71876126D01*
X132777085Y-71707604D01*
X132741500Y-71528703D01*
X132741500Y-71346297D01*
X132777085Y-71167396D01*
X132846889Y-70998874D01*
X132948228Y-70847209D01*
X133077209Y-70718228D01*
X133228874Y-70616889D01*
X133397396Y-70547085D01*
X133576297Y-70511500D01*
X133758703Y-70511500D01*
X133937604Y-70547085D01*
X133937604Y-70547085D01*
G37*
G36*
X151244000Y-71395000D02*
G01*
X149342000Y-71395000D01*
X149342000Y-70193000D01*
X151244000Y-70193000D01*
X151244000Y-71395000D01*
X151244000Y-71395000D01*
G37*
G36*
X145044000Y-71395000D02*
G01*
X143142000Y-71395000D01*
X143142000Y-70193000D01*
X145044000Y-70193000D01*
X145044000Y-71395000D01*
X145044000Y-71395000D01*
G37*
G36*
X33933974Y-50421184D02*
G01*
X34151974Y-50511483D01*
X34306123Y-50575333D01*
X34641048Y-50799123D01*
X34925877Y-51083952D01*
X35149667Y-51418877D01*
X35182062Y-51497086D01*
X35303816Y-51791026D01*
X35382400Y-52186094D01*
X35382400Y-52588906D01*
X35303816Y-52983974D01*
X35252951Y-53106772D01*
X35149667Y-53356123D01*
X34925877Y-53691048D01*
X34641048Y-53975877D01*
X34306123Y-54199667D01*
X34151974Y-54263517D01*
X33933974Y-54353816D01*
X33538906Y-54432400D01*
X33136094Y-54432400D01*
X32741026Y-54353816D01*
X32523026Y-54263517D01*
X32368877Y-54199667D01*
X32033952Y-53975877D01*
X31749123Y-53691048D01*
X31525333Y-53356123D01*
X31422049Y-53106772D01*
X31371184Y-52983974D01*
X31292600Y-52588906D01*
X31292600Y-52186094D01*
X31371184Y-51791026D01*
X31492938Y-51497086D01*
X31525333Y-51418877D01*
X31749123Y-51083952D01*
X32033952Y-50799123D01*
X32368877Y-50575333D01*
X32523026Y-50511483D01*
X32741026Y-50421184D01*
X33136094Y-50342600D01*
X33538906Y-50342600D01*
X33933974Y-50421184D01*
X33933974Y-50421184D01*
G37*
G36*
X129183974Y-50421184D02*
G01*
X129401974Y-50511483D01*
X129556123Y-50575333D01*
X129891048Y-50799123D01*
X130175877Y-51083952D01*
X130399667Y-51418877D01*
X130432062Y-51497086D01*
X130553816Y-51791026D01*
X130632400Y-52186094D01*
X130632400Y-52588906D01*
X130553816Y-52983974D01*
X130502951Y-53106772D01*
X130399667Y-53356123D01*
X130175877Y-53691048D01*
X129891048Y-53975877D01*
X129556123Y-54199667D01*
X129401974Y-54263517D01*
X129183974Y-54353816D01*
X128788906Y-54432400D01*
X128386094Y-54432400D01*
X127991026Y-54353816D01*
X127773026Y-54263517D01*
X127618877Y-54199667D01*
X127283952Y-53975877D01*
X126999123Y-53691048D01*
X126775333Y-53356123D01*
X126672049Y-53106772D01*
X126621184Y-52983974D01*
X126542600Y-52588906D01*
X126542600Y-52186094D01*
X126621184Y-51791026D01*
X126742938Y-51497086D01*
X126775333Y-51418877D01*
X126999123Y-51083952D01*
X127283952Y-50799123D01*
X127618877Y-50575333D01*
X127773026Y-50511483D01*
X127991026Y-50421184D01*
X128386094Y-50342600D01*
X128788906Y-50342600D01*
X129183974Y-50421184D01*
X129183974Y-50421184D01*
G37*
G36*
X52983974Y-50421184D02*
G01*
X53201974Y-50511483D01*
X53356123Y-50575333D01*
X53691048Y-50799123D01*
X53975877Y-51083952D01*
X54199667Y-51418877D01*
X54232062Y-51497086D01*
X54353816Y-51791026D01*
X54432400Y-52186094D01*
X54432400Y-52588906D01*
X54353816Y-52983974D01*
X54302951Y-53106772D01*
X54199667Y-53356123D01*
X53975877Y-53691048D01*
X53691048Y-53975877D01*
X53356123Y-54199667D01*
X53201974Y-54263517D01*
X52983974Y-54353816D01*
X52588906Y-54432400D01*
X52186094Y-54432400D01*
X51791026Y-54353816D01*
X51573026Y-54263517D01*
X51418877Y-54199667D01*
X51083952Y-53975877D01*
X50799123Y-53691048D01*
X50575333Y-53356123D01*
X50472049Y-53106772D01*
X50421184Y-52983974D01*
X50342600Y-52588906D01*
X50342600Y-52186094D01*
X50421184Y-51791026D01*
X50542938Y-51497086D01*
X50575333Y-51418877D01*
X50799123Y-51083952D01*
X51083952Y-50799123D01*
X51418877Y-50575333D01*
X51573026Y-50511483D01*
X51791026Y-50421184D01*
X52186094Y-50342600D01*
X52588906Y-50342600D01*
X52983974Y-50421184D01*
X52983974Y-50421184D01*
G37*
G36*
X72033974Y-50421184D02*
G01*
X72251974Y-50511483D01*
X72406123Y-50575333D01*
X72741048Y-50799123D01*
X73025877Y-51083952D01*
X73249667Y-51418877D01*
X73282062Y-51497086D01*
X73403816Y-51791026D01*
X73482400Y-52186094D01*
X73482400Y-52588906D01*
X73403816Y-52983974D01*
X73352951Y-53106772D01*
X73249667Y-53356123D01*
X73025877Y-53691048D01*
X72741048Y-53975877D01*
X72406123Y-54199667D01*
X72251974Y-54263517D01*
X72033974Y-54353816D01*
X71638906Y-54432400D01*
X71236094Y-54432400D01*
X70841026Y-54353816D01*
X70623026Y-54263517D01*
X70468877Y-54199667D01*
X70133952Y-53975877D01*
X69849123Y-53691048D01*
X69625333Y-53356123D01*
X69522049Y-53106772D01*
X69471184Y-52983974D01*
X69392600Y-52588906D01*
X69392600Y-52186094D01*
X69471184Y-51791026D01*
X69592938Y-51497086D01*
X69625333Y-51418877D01*
X69849123Y-51083952D01*
X70133952Y-50799123D01*
X70468877Y-50575333D01*
X70623026Y-50511483D01*
X70841026Y-50421184D01*
X71236094Y-50342600D01*
X71638906Y-50342600D01*
X72033974Y-50421184D01*
X72033974Y-50421184D01*
G37*
G36*
X91083974Y-50421184D02*
G01*
X91301974Y-50511483D01*
X91456123Y-50575333D01*
X91791048Y-50799123D01*
X92075877Y-51083952D01*
X92299667Y-51418877D01*
X92332062Y-51497086D01*
X92453816Y-51791026D01*
X92532400Y-52186094D01*
X92532400Y-52588906D01*
X92453816Y-52983974D01*
X92402951Y-53106772D01*
X92299667Y-53356123D01*
X92075877Y-53691048D01*
X91791048Y-53975877D01*
X91456123Y-54199667D01*
X91301974Y-54263517D01*
X91083974Y-54353816D01*
X90688906Y-54432400D01*
X90286094Y-54432400D01*
X89891026Y-54353816D01*
X89673026Y-54263517D01*
X89518877Y-54199667D01*
X89183952Y-53975877D01*
X88899123Y-53691048D01*
X88675333Y-53356123D01*
X88572049Y-53106772D01*
X88521184Y-52983974D01*
X88442600Y-52588906D01*
X88442600Y-52186094D01*
X88521184Y-51791026D01*
X88642938Y-51497086D01*
X88675333Y-51418877D01*
X88899123Y-51083952D01*
X89183952Y-50799123D01*
X89518877Y-50575333D01*
X89673026Y-50511483D01*
X89891026Y-50421184D01*
X90286094Y-50342600D01*
X90688906Y-50342600D01*
X91083974Y-50421184D01*
X91083974Y-50421184D01*
G37*
G36*
X110133974Y-50421184D02*
G01*
X110351974Y-50511483D01*
X110506123Y-50575333D01*
X110841048Y-50799123D01*
X111125877Y-51083952D01*
X111349667Y-51418877D01*
X111382062Y-51497086D01*
X111503816Y-51791026D01*
X111582400Y-52186094D01*
X111582400Y-52588906D01*
X111503816Y-52983974D01*
X111452951Y-53106772D01*
X111349667Y-53356123D01*
X111125877Y-53691048D01*
X110841048Y-53975877D01*
X110506123Y-54199667D01*
X110351974Y-54263517D01*
X110133974Y-54353816D01*
X109738906Y-54432400D01*
X109336094Y-54432400D01*
X108941026Y-54353816D01*
X108723026Y-54263517D01*
X108568877Y-54199667D01*
X108233952Y-53975877D01*
X107949123Y-53691048D01*
X107725333Y-53356123D01*
X107622049Y-53106772D01*
X107571184Y-52983974D01*
X107492600Y-52588906D01*
X107492600Y-52186094D01*
X107571184Y-51791026D01*
X107692938Y-51497086D01*
X107725333Y-51418877D01*
X107949123Y-51083952D01*
X108233952Y-50799123D01*
X108568877Y-50575333D01*
X108723026Y-50511483D01*
X108941026Y-50421184D01*
X109336094Y-50342600D01*
X109738906Y-50342600D01*
X110133974Y-50421184D01*
X110133974Y-50421184D01*
G37*
G36*
X57737604Y-51497085D02*
G01*
X57906126Y-51566889D01*
X58057791Y-51668228D01*
X58186772Y-51797209D01*
X58288111Y-51948874D01*
X58357915Y-52117396D01*
X58393500Y-52296297D01*
X58393500Y-52478703D01*
X58357915Y-52657604D01*
X58288111Y-52826126D01*
X58186772Y-52977791D01*
X58057791Y-53106772D01*
X57906126Y-53208111D01*
X57737604Y-53277915D01*
X57558703Y-53313500D01*
X57376297Y-53313500D01*
X57197396Y-53277915D01*
X57028874Y-53208111D01*
X56877209Y-53106772D01*
X56748228Y-52977791D01*
X56646889Y-52826126D01*
X56577085Y-52657604D01*
X56541500Y-52478703D01*
X56541500Y-52296297D01*
X56577085Y-52117396D01*
X56646889Y-51948874D01*
X56748228Y-51797209D01*
X56877209Y-51668228D01*
X57028874Y-51566889D01*
X57197396Y-51497085D01*
X57376297Y-51461500D01*
X57558703Y-51461500D01*
X57737604Y-51497085D01*
X57737604Y-51497085D01*
G37*
G36*
X85677604Y-51497085D02*
G01*
X85846126Y-51566889D01*
X85997791Y-51668228D01*
X86126772Y-51797209D01*
X86228111Y-51948874D01*
X86297915Y-52117396D01*
X86333500Y-52296297D01*
X86333500Y-52478703D01*
X86297915Y-52657604D01*
X86228111Y-52826126D01*
X86126772Y-52977791D01*
X85997791Y-53106772D01*
X85846126Y-53208111D01*
X85677604Y-53277915D01*
X85498703Y-53313500D01*
X85316297Y-53313500D01*
X85137396Y-53277915D01*
X84968874Y-53208111D01*
X84817209Y-53106772D01*
X84688228Y-52977791D01*
X84586889Y-52826126D01*
X84517085Y-52657604D01*
X84481500Y-52478703D01*
X84481500Y-52296297D01*
X84517085Y-52117396D01*
X84586889Y-51948874D01*
X84688228Y-51797209D01*
X84817209Y-51668228D01*
X84968874Y-51566889D01*
X85137396Y-51497085D01*
X85316297Y-51461500D01*
X85498703Y-51461500D01*
X85677604Y-51497085D01*
X85677604Y-51497085D01*
G37*
G36*
X28527604Y-51497085D02*
G01*
X28696126Y-51566889D01*
X28847791Y-51668228D01*
X28976772Y-51797209D01*
X29078111Y-51948874D01*
X29147915Y-52117396D01*
X29183500Y-52296297D01*
X29183500Y-52478703D01*
X29147915Y-52657604D01*
X29078111Y-52826126D01*
X28976772Y-52977791D01*
X28847791Y-53106772D01*
X28696126Y-53208111D01*
X28527604Y-53277915D01*
X28348703Y-53313500D01*
X28166297Y-53313500D01*
X27987396Y-53277915D01*
X27818874Y-53208111D01*
X27667209Y-53106772D01*
X27538228Y-52977791D01*
X27436889Y-52826126D01*
X27367085Y-52657604D01*
X27331500Y-52478703D01*
X27331500Y-52296297D01*
X27367085Y-52117396D01*
X27436889Y-51948874D01*
X27538228Y-51797209D01*
X27667209Y-51668228D01*
X27818874Y-51566889D01*
X27987396Y-51497085D01*
X28166297Y-51461500D01*
X28348703Y-51461500D01*
X28527604Y-51497085D01*
X28527604Y-51497085D01*
G37*
G36*
X47577604Y-51497085D02*
G01*
X47746126Y-51566889D01*
X47897791Y-51668228D01*
X48026772Y-51797209D01*
X48128111Y-51948874D01*
X48197915Y-52117396D01*
X48233500Y-52296297D01*
X48233500Y-52478703D01*
X48197915Y-52657604D01*
X48128111Y-52826126D01*
X48026772Y-52977791D01*
X47897791Y-53106772D01*
X47746126Y-53208111D01*
X47577604Y-53277915D01*
X47398703Y-53313500D01*
X47216297Y-53313500D01*
X47037396Y-53277915D01*
X46868874Y-53208111D01*
X46717209Y-53106772D01*
X46588228Y-52977791D01*
X46486889Y-52826126D01*
X46417085Y-52657604D01*
X46381500Y-52478703D01*
X46381500Y-52296297D01*
X46417085Y-52117396D01*
X46486889Y-51948874D01*
X46588228Y-51797209D01*
X46717209Y-51668228D01*
X46868874Y-51566889D01*
X47037396Y-51497085D01*
X47216297Y-51461500D01*
X47398703Y-51461500D01*
X47577604Y-51497085D01*
X47577604Y-51497085D01*
G37*
G36*
X133937604Y-51497085D02*
G01*
X134106126Y-51566889D01*
X134257791Y-51668228D01*
X134386772Y-51797209D01*
X134488111Y-51948874D01*
X134557915Y-52117396D01*
X134593500Y-52296297D01*
X134593500Y-52478703D01*
X134557915Y-52657604D01*
X134488111Y-52826126D01*
X134386772Y-52977791D01*
X134257791Y-53106772D01*
X134106126Y-53208111D01*
X133937604Y-53277915D01*
X133758703Y-53313500D01*
X133576297Y-53313500D01*
X133397396Y-53277915D01*
X133228874Y-53208111D01*
X133077209Y-53106772D01*
X132948228Y-52977791D01*
X132846889Y-52826126D01*
X132777085Y-52657604D01*
X132741500Y-52478703D01*
X132741500Y-52296297D01*
X132777085Y-52117396D01*
X132846889Y-51948874D01*
X132948228Y-51797209D01*
X133077209Y-51668228D01*
X133228874Y-51566889D01*
X133397396Y-51497085D01*
X133576297Y-51461500D01*
X133758703Y-51461500D01*
X133937604Y-51497085D01*
X133937604Y-51497085D01*
G37*
G36*
X123777604Y-51497085D02*
G01*
X123946126Y-51566889D01*
X124097791Y-51668228D01*
X124226772Y-51797209D01*
X124328111Y-51948874D01*
X124397915Y-52117396D01*
X124433500Y-52296297D01*
X124433500Y-52478703D01*
X124397915Y-52657604D01*
X124328111Y-52826126D01*
X124226772Y-52977791D01*
X124097791Y-53106772D01*
X123946126Y-53208111D01*
X123777604Y-53277915D01*
X123598703Y-53313500D01*
X123416297Y-53313500D01*
X123237396Y-53277915D01*
X123068874Y-53208111D01*
X122917209Y-53106772D01*
X122788228Y-52977791D01*
X122686889Y-52826126D01*
X122617085Y-52657604D01*
X122581500Y-52478703D01*
X122581500Y-52296297D01*
X122617085Y-52117396D01*
X122686889Y-51948874D01*
X122788228Y-51797209D01*
X122917209Y-51668228D01*
X123068874Y-51566889D01*
X123237396Y-51497085D01*
X123416297Y-51461500D01*
X123598703Y-51461500D01*
X123777604Y-51497085D01*
X123777604Y-51497085D01*
G37*
G36*
X38687604Y-51497085D02*
G01*
X38856126Y-51566889D01*
X39007791Y-51668228D01*
X39136772Y-51797209D01*
X39238111Y-51948874D01*
X39307915Y-52117396D01*
X39343500Y-52296297D01*
X39343500Y-52478703D01*
X39307915Y-52657604D01*
X39238111Y-52826126D01*
X39136772Y-52977791D01*
X39007791Y-53106772D01*
X38856126Y-53208111D01*
X38687604Y-53277915D01*
X38508703Y-53313500D01*
X38326297Y-53313500D01*
X38147396Y-53277915D01*
X37978874Y-53208111D01*
X37827209Y-53106772D01*
X37698228Y-52977791D01*
X37596889Y-52826126D01*
X37527085Y-52657604D01*
X37491500Y-52478703D01*
X37491500Y-52296297D01*
X37527085Y-52117396D01*
X37596889Y-51948874D01*
X37698228Y-51797209D01*
X37827209Y-51668228D01*
X37978874Y-51566889D01*
X38147396Y-51497085D01*
X38326297Y-51461500D01*
X38508703Y-51461500D01*
X38687604Y-51497085D01*
X38687604Y-51497085D01*
G37*
G36*
X104727604Y-51497085D02*
G01*
X104896126Y-51566889D01*
X105047791Y-51668228D01*
X105176772Y-51797209D01*
X105278111Y-51948874D01*
X105347915Y-52117396D01*
X105383500Y-52296297D01*
X105383500Y-52478703D01*
X105347915Y-52657604D01*
X105278111Y-52826126D01*
X105176772Y-52977791D01*
X105047791Y-53106772D01*
X104896126Y-53208111D01*
X104727604Y-53277915D01*
X104548703Y-53313500D01*
X104366297Y-53313500D01*
X104187396Y-53277915D01*
X104018874Y-53208111D01*
X103867209Y-53106772D01*
X103738228Y-52977791D01*
X103636889Y-52826126D01*
X103567085Y-52657604D01*
X103531500Y-52478703D01*
X103531500Y-52296297D01*
X103567085Y-52117396D01*
X103636889Y-51948874D01*
X103738228Y-51797209D01*
X103867209Y-51668228D01*
X104018874Y-51566889D01*
X104187396Y-51497085D01*
X104366297Y-51461500D01*
X104548703Y-51461500D01*
X104727604Y-51497085D01*
X104727604Y-51497085D01*
G37*
G36*
X95837604Y-51497085D02*
G01*
X96006126Y-51566889D01*
X96157791Y-51668228D01*
X96286772Y-51797209D01*
X96388111Y-51948874D01*
X96457915Y-52117396D01*
X96493500Y-52296297D01*
X96493500Y-52478703D01*
X96457915Y-52657604D01*
X96388111Y-52826126D01*
X96286772Y-52977791D01*
X96157791Y-53106772D01*
X96006126Y-53208111D01*
X95837604Y-53277915D01*
X95658703Y-53313500D01*
X95476297Y-53313500D01*
X95297396Y-53277915D01*
X95128874Y-53208111D01*
X94977209Y-53106772D01*
X94848228Y-52977791D01*
X94746889Y-52826126D01*
X94677085Y-52657604D01*
X94641500Y-52478703D01*
X94641500Y-52296297D01*
X94677085Y-52117396D01*
X94746889Y-51948874D01*
X94848228Y-51797209D01*
X94977209Y-51668228D01*
X95128874Y-51566889D01*
X95297396Y-51497085D01*
X95476297Y-51461500D01*
X95658703Y-51461500D01*
X95837604Y-51497085D01*
X95837604Y-51497085D01*
G37*
G36*
X76787604Y-51497085D02*
G01*
X76956126Y-51566889D01*
X77107791Y-51668228D01*
X77236772Y-51797209D01*
X77338111Y-51948874D01*
X77407915Y-52117396D01*
X77443500Y-52296297D01*
X77443500Y-52478703D01*
X77407915Y-52657604D01*
X77338111Y-52826126D01*
X77236772Y-52977791D01*
X77107791Y-53106772D01*
X76956126Y-53208111D01*
X76787604Y-53277915D01*
X76608703Y-53313500D01*
X76426297Y-53313500D01*
X76247396Y-53277915D01*
X76078874Y-53208111D01*
X75927209Y-53106772D01*
X75798228Y-52977791D01*
X75696889Y-52826126D01*
X75627085Y-52657604D01*
X75591500Y-52478703D01*
X75591500Y-52296297D01*
X75627085Y-52117396D01*
X75696889Y-51948874D01*
X75798228Y-51797209D01*
X75927209Y-51668228D01*
X76078874Y-51566889D01*
X76247396Y-51497085D01*
X76426297Y-51461500D01*
X76608703Y-51461500D01*
X76787604Y-51497085D01*
X76787604Y-51497085D01*
G37*
G36*
X66627604Y-51497085D02*
G01*
X66796126Y-51566889D01*
X66947791Y-51668228D01*
X67076772Y-51797209D01*
X67178111Y-51948874D01*
X67247915Y-52117396D01*
X67283500Y-52296297D01*
X67283500Y-52478703D01*
X67247915Y-52657604D01*
X67178111Y-52826126D01*
X67076772Y-52977791D01*
X66947791Y-53106772D01*
X66796126Y-53208111D01*
X66627604Y-53277915D01*
X66448703Y-53313500D01*
X66266297Y-53313500D01*
X66087396Y-53277915D01*
X65918874Y-53208111D01*
X65767209Y-53106772D01*
X65638228Y-52977791D01*
X65536889Y-52826126D01*
X65467085Y-52657604D01*
X65431500Y-52478703D01*
X65431500Y-52296297D01*
X65467085Y-52117396D01*
X65536889Y-51948874D01*
X65638228Y-51797209D01*
X65767209Y-51668228D01*
X65918874Y-51566889D01*
X66087396Y-51497085D01*
X66266297Y-51461500D01*
X66448703Y-51461500D01*
X66627604Y-51497085D01*
X66627604Y-51497085D01*
G37*
G36*
X114887604Y-51497085D02*
G01*
X115056126Y-51566889D01*
X115207791Y-51668228D01*
X115336772Y-51797209D01*
X115438111Y-51948874D01*
X115507915Y-52117396D01*
X115543500Y-52296297D01*
X115543500Y-52478703D01*
X115507915Y-52657604D01*
X115438111Y-52826126D01*
X115336772Y-52977791D01*
X115207791Y-53106772D01*
X115056126Y-53208111D01*
X114887604Y-53277915D01*
X114708703Y-53313500D01*
X114526297Y-53313500D01*
X114347396Y-53277915D01*
X114178874Y-53208111D01*
X114027209Y-53106772D01*
X113898228Y-52977791D01*
X113796889Y-52826126D01*
X113727085Y-52657604D01*
X113691500Y-52478703D01*
X113691500Y-52296297D01*
X113727085Y-52117396D01*
X113796889Y-51948874D01*
X113898228Y-51797209D01*
X114027209Y-51668228D01*
X114178874Y-51566889D01*
X114347396Y-51497085D01*
X114526297Y-51461500D01*
X114708703Y-51461500D01*
X114887604Y-51497085D01*
X114887604Y-51497085D01*
G37*
G36*
X166387331Y-35860211D02*
G01*
X166715092Y-35995974D01*
X167010070Y-36193072D01*
X167260928Y-36443930D01*
X167458026Y-36738908D01*
X167593789Y-37066669D01*
X167663000Y-37414616D01*
X167663000Y-37769384D01*
X167593789Y-38117331D01*
X167458026Y-38445092D01*
X167260928Y-38740070D01*
X167010070Y-38990928D01*
X166715092Y-39188026D01*
X166387331Y-39323789D01*
X166039384Y-39393000D01*
X165684616Y-39393000D01*
X165336669Y-39323789D01*
X165008908Y-39188026D01*
X164713930Y-38990928D01*
X164463072Y-38740070D01*
X164265974Y-38445092D01*
X164130211Y-38117331D01*
X164061000Y-37769384D01*
X164061000Y-37414616D01*
X164130211Y-37066669D01*
X164265974Y-36738908D01*
X164463072Y-36443930D01*
X164713930Y-36193072D01*
X165008908Y-35995974D01*
X165336669Y-35860211D01*
X165684616Y-35791000D01*
X166039384Y-35791000D01*
X166387331Y-35860211D01*
X166387331Y-35860211D01*
G37*
G36*
X110133974Y-31371184D02*
G01*
X110351974Y-31461483D01*
X110506123Y-31525333D01*
X110841048Y-31749123D01*
X111125877Y-32033952D01*
X111349667Y-32368877D01*
X111382062Y-32447086D01*
X111503816Y-32741026D01*
X111582400Y-33136094D01*
X111582400Y-33538906D01*
X111503816Y-33933974D01*
X111452951Y-34056772D01*
X111349667Y-34306123D01*
X111125877Y-34641048D01*
X110841048Y-34925877D01*
X110506123Y-35149667D01*
X110351974Y-35213517D01*
X110133974Y-35303816D01*
X109738906Y-35382400D01*
X109336094Y-35382400D01*
X108941026Y-35303816D01*
X108723026Y-35213517D01*
X108568877Y-35149667D01*
X108233952Y-34925877D01*
X107949123Y-34641048D01*
X107725333Y-34306123D01*
X107622049Y-34056772D01*
X107571184Y-33933974D01*
X107492600Y-33538906D01*
X107492600Y-33136094D01*
X107571184Y-32741026D01*
X107692938Y-32447086D01*
X107725333Y-32368877D01*
X107949123Y-32033952D01*
X108233952Y-31749123D01*
X108568877Y-31525333D01*
X108723026Y-31461483D01*
X108941026Y-31371184D01*
X109336094Y-31292600D01*
X109738906Y-31292600D01*
X110133974Y-31371184D01*
X110133974Y-31371184D01*
G37*
G36*
X33933974Y-31371184D02*
G01*
X34151974Y-31461483D01*
X34306123Y-31525333D01*
X34641048Y-31749123D01*
X34925877Y-32033952D01*
X35149667Y-32368877D01*
X35182062Y-32447086D01*
X35303816Y-32741026D01*
X35382400Y-33136094D01*
X35382400Y-33538906D01*
X35303816Y-33933974D01*
X35252951Y-34056772D01*
X35149667Y-34306123D01*
X34925877Y-34641048D01*
X34641048Y-34925877D01*
X34306123Y-35149667D01*
X34151974Y-35213517D01*
X33933974Y-35303816D01*
X33538906Y-35382400D01*
X33136094Y-35382400D01*
X32741026Y-35303816D01*
X32523026Y-35213517D01*
X32368877Y-35149667D01*
X32033952Y-34925877D01*
X31749123Y-34641048D01*
X31525333Y-34306123D01*
X31422049Y-34056772D01*
X31371184Y-33933974D01*
X31292600Y-33538906D01*
X31292600Y-33136094D01*
X31371184Y-32741026D01*
X31492938Y-32447086D01*
X31525333Y-32368877D01*
X31749123Y-32033952D01*
X32033952Y-31749123D01*
X32368877Y-31525333D01*
X32523026Y-31461483D01*
X32741026Y-31371184D01*
X33136094Y-31292600D01*
X33538906Y-31292600D01*
X33933974Y-31371184D01*
X33933974Y-31371184D01*
G37*
G36*
X72033974Y-31371184D02*
G01*
X72251974Y-31461483D01*
X72406123Y-31525333D01*
X72741048Y-31749123D01*
X73025877Y-32033952D01*
X73249667Y-32368877D01*
X73282062Y-32447086D01*
X73403816Y-32741026D01*
X73482400Y-33136094D01*
X73482400Y-33538906D01*
X73403816Y-33933974D01*
X73352951Y-34056772D01*
X73249667Y-34306123D01*
X73025877Y-34641048D01*
X72741048Y-34925877D01*
X72406123Y-35149667D01*
X72251974Y-35213517D01*
X72033974Y-35303816D01*
X71638906Y-35382400D01*
X71236094Y-35382400D01*
X70841026Y-35303816D01*
X70623026Y-35213517D01*
X70468877Y-35149667D01*
X70133952Y-34925877D01*
X69849123Y-34641048D01*
X69625333Y-34306123D01*
X69522049Y-34056772D01*
X69471184Y-33933974D01*
X69392600Y-33538906D01*
X69392600Y-33136094D01*
X69471184Y-32741026D01*
X69592938Y-32447086D01*
X69625333Y-32368877D01*
X69849123Y-32033952D01*
X70133952Y-31749123D01*
X70468877Y-31525333D01*
X70623026Y-31461483D01*
X70841026Y-31371184D01*
X71236094Y-31292600D01*
X71638906Y-31292600D01*
X72033974Y-31371184D01*
X72033974Y-31371184D01*
G37*
G36*
X91083974Y-31371184D02*
G01*
X91301974Y-31461483D01*
X91456123Y-31525333D01*
X91791048Y-31749123D01*
X92075877Y-32033952D01*
X92299667Y-32368877D01*
X92332062Y-32447086D01*
X92453816Y-32741026D01*
X92532400Y-33136094D01*
X92532400Y-33538906D01*
X92453816Y-33933974D01*
X92402951Y-34056772D01*
X92299667Y-34306123D01*
X92075877Y-34641048D01*
X91791048Y-34925877D01*
X91456123Y-35149667D01*
X91301974Y-35213517D01*
X91083974Y-35303816D01*
X90688906Y-35382400D01*
X90286094Y-35382400D01*
X89891026Y-35303816D01*
X89673026Y-35213517D01*
X89518877Y-35149667D01*
X89183952Y-34925877D01*
X88899123Y-34641048D01*
X88675333Y-34306123D01*
X88572049Y-34056772D01*
X88521184Y-33933974D01*
X88442600Y-33538906D01*
X88442600Y-33136094D01*
X88521184Y-32741026D01*
X88642938Y-32447086D01*
X88675333Y-32368877D01*
X88899123Y-32033952D01*
X89183952Y-31749123D01*
X89518877Y-31525333D01*
X89673026Y-31461483D01*
X89891026Y-31371184D01*
X90286094Y-31292600D01*
X90688906Y-31292600D01*
X91083974Y-31371184D01*
X91083974Y-31371184D01*
G37*
G36*
X129183974Y-31371184D02*
G01*
X129401974Y-31461483D01*
X129556123Y-31525333D01*
X129891048Y-31749123D01*
X130175877Y-32033952D01*
X130399667Y-32368877D01*
X130432062Y-32447086D01*
X130553816Y-32741026D01*
X130632400Y-33136094D01*
X130632400Y-33538906D01*
X130553816Y-33933974D01*
X130502951Y-34056772D01*
X130399667Y-34306123D01*
X130175877Y-34641048D01*
X129891048Y-34925877D01*
X129556123Y-35149667D01*
X129401974Y-35213517D01*
X129183974Y-35303816D01*
X128788906Y-35382400D01*
X128386094Y-35382400D01*
X127991026Y-35303816D01*
X127773026Y-35213517D01*
X127618877Y-35149667D01*
X127283952Y-34925877D01*
X126999123Y-34641048D01*
X126775333Y-34306123D01*
X126672049Y-34056772D01*
X126621184Y-33933974D01*
X126542600Y-33538906D01*
X126542600Y-33136094D01*
X126621184Y-32741026D01*
X126742938Y-32447086D01*
X126775333Y-32368877D01*
X126999123Y-32033952D01*
X127283952Y-31749123D01*
X127618877Y-31525333D01*
X127773026Y-31461483D01*
X127991026Y-31371184D01*
X128386094Y-31292600D01*
X128788906Y-31292600D01*
X129183974Y-31371184D01*
X129183974Y-31371184D01*
G37*
G36*
X52983974Y-31371184D02*
G01*
X53201974Y-31461483D01*
X53356123Y-31525333D01*
X53691048Y-31749123D01*
X53975877Y-32033952D01*
X54199667Y-32368877D01*
X54232062Y-32447086D01*
X54353816Y-32741026D01*
X54432400Y-33136094D01*
X54432400Y-33538906D01*
X54353816Y-33933974D01*
X54302951Y-34056772D01*
X54199667Y-34306123D01*
X53975877Y-34641048D01*
X53691048Y-34925877D01*
X53356123Y-35149667D01*
X53201974Y-35213517D01*
X52983974Y-35303816D01*
X52588906Y-35382400D01*
X52186094Y-35382400D01*
X51791026Y-35303816D01*
X51573026Y-35213517D01*
X51418877Y-35149667D01*
X51083952Y-34925877D01*
X50799123Y-34641048D01*
X50575333Y-34306123D01*
X50472049Y-34056772D01*
X50421184Y-33933974D01*
X50342600Y-33538906D01*
X50342600Y-33136094D01*
X50421184Y-32741026D01*
X50542938Y-32447086D01*
X50575333Y-32368877D01*
X50799123Y-32033952D01*
X51083952Y-31749123D01*
X51418877Y-31525333D01*
X51573026Y-31461483D01*
X51791026Y-31371184D01*
X52186094Y-31292600D01*
X52588906Y-31292600D01*
X52983974Y-31371184D01*
X52983974Y-31371184D01*
G37*
G36*
X114887604Y-32447085D02*
G01*
X115056126Y-32516889D01*
X115207791Y-32618228D01*
X115336772Y-32747209D01*
X115438111Y-32898874D01*
X115507915Y-33067396D01*
X115543500Y-33246297D01*
X115543500Y-33428703D01*
X115507915Y-33607604D01*
X115438111Y-33776126D01*
X115336772Y-33927791D01*
X115207791Y-34056772D01*
X115056126Y-34158111D01*
X114887604Y-34227915D01*
X114708703Y-34263500D01*
X114526297Y-34263500D01*
X114347396Y-34227915D01*
X114178874Y-34158111D01*
X114027209Y-34056772D01*
X113898228Y-33927791D01*
X113796889Y-33776126D01*
X113727085Y-33607604D01*
X113691500Y-33428703D01*
X113691500Y-33246297D01*
X113727085Y-33067396D01*
X113796889Y-32898874D01*
X113898228Y-32747209D01*
X114027209Y-32618228D01*
X114178874Y-32516889D01*
X114347396Y-32447085D01*
X114526297Y-32411500D01*
X114708703Y-32411500D01*
X114887604Y-32447085D01*
X114887604Y-32447085D01*
G37*
G36*
X104727604Y-32447085D02*
G01*
X104896126Y-32516889D01*
X105047791Y-32618228D01*
X105176772Y-32747209D01*
X105278111Y-32898874D01*
X105347915Y-33067396D01*
X105383500Y-33246297D01*
X105383500Y-33428703D01*
X105347915Y-33607604D01*
X105278111Y-33776126D01*
X105176772Y-33927791D01*
X105047791Y-34056772D01*
X104896126Y-34158111D01*
X104727604Y-34227915D01*
X104548703Y-34263500D01*
X104366297Y-34263500D01*
X104187396Y-34227915D01*
X104018874Y-34158111D01*
X103867209Y-34056772D01*
X103738228Y-33927791D01*
X103636889Y-33776126D01*
X103567085Y-33607604D01*
X103531500Y-33428703D01*
X103531500Y-33246297D01*
X103567085Y-33067396D01*
X103636889Y-32898874D01*
X103738228Y-32747209D01*
X103867209Y-32618228D01*
X104018874Y-32516889D01*
X104187396Y-32447085D01*
X104366297Y-32411500D01*
X104548703Y-32411500D01*
X104727604Y-32447085D01*
X104727604Y-32447085D01*
G37*
G36*
X38687604Y-32447085D02*
G01*
X38856126Y-32516889D01*
X39007791Y-32618228D01*
X39136772Y-32747209D01*
X39238111Y-32898874D01*
X39307915Y-33067396D01*
X39343500Y-33246297D01*
X39343500Y-33428703D01*
X39307915Y-33607604D01*
X39238111Y-33776126D01*
X39136772Y-33927791D01*
X39007791Y-34056772D01*
X38856126Y-34158111D01*
X38687604Y-34227915D01*
X38508703Y-34263500D01*
X38326297Y-34263500D01*
X38147396Y-34227915D01*
X37978874Y-34158111D01*
X37827209Y-34056772D01*
X37698228Y-33927791D01*
X37596889Y-33776126D01*
X37527085Y-33607604D01*
X37491500Y-33428703D01*
X37491500Y-33246297D01*
X37527085Y-33067396D01*
X37596889Y-32898874D01*
X37698228Y-32747209D01*
X37827209Y-32618228D01*
X37978874Y-32516889D01*
X38147396Y-32447085D01*
X38326297Y-32411500D01*
X38508703Y-32411500D01*
X38687604Y-32447085D01*
X38687604Y-32447085D01*
G37*
G36*
X28527604Y-32447085D02*
G01*
X28696126Y-32516889D01*
X28847791Y-32618228D01*
X28976772Y-32747209D01*
X29078111Y-32898874D01*
X29147915Y-33067396D01*
X29183500Y-33246297D01*
X29183500Y-33428703D01*
X29147915Y-33607604D01*
X29078111Y-33776126D01*
X28976772Y-33927791D01*
X28847791Y-34056772D01*
X28696126Y-34158111D01*
X28527604Y-34227915D01*
X28348703Y-34263500D01*
X28166297Y-34263500D01*
X27987396Y-34227915D01*
X27818874Y-34158111D01*
X27667209Y-34056772D01*
X27538228Y-33927791D01*
X27436889Y-33776126D01*
X27367085Y-33607604D01*
X27331500Y-33428703D01*
X27331500Y-33246297D01*
X27367085Y-33067396D01*
X27436889Y-32898874D01*
X27538228Y-32747209D01*
X27667209Y-32618228D01*
X27818874Y-32516889D01*
X27987396Y-32447085D01*
X28166297Y-32411500D01*
X28348703Y-32411500D01*
X28527604Y-32447085D01*
X28527604Y-32447085D01*
G37*
G36*
X57737604Y-32447085D02*
G01*
X57906126Y-32516889D01*
X58057791Y-32618228D01*
X58186772Y-32747209D01*
X58288111Y-32898874D01*
X58357915Y-33067396D01*
X58393500Y-33246297D01*
X58393500Y-33428703D01*
X58357915Y-33607604D01*
X58288111Y-33776126D01*
X58186772Y-33927791D01*
X58057791Y-34056772D01*
X57906126Y-34158111D01*
X57737604Y-34227915D01*
X57558703Y-34263500D01*
X57376297Y-34263500D01*
X57197396Y-34227915D01*
X57028874Y-34158111D01*
X56877209Y-34056772D01*
X56748228Y-33927791D01*
X56646889Y-33776126D01*
X56577085Y-33607604D01*
X56541500Y-33428703D01*
X56541500Y-33246297D01*
X56577085Y-33067396D01*
X56646889Y-32898874D01*
X56748228Y-32747209D01*
X56877209Y-32618228D01*
X57028874Y-32516889D01*
X57197396Y-32447085D01*
X57376297Y-32411500D01*
X57558703Y-32411500D01*
X57737604Y-32447085D01*
X57737604Y-32447085D01*
G37*
G36*
X47577604Y-32447085D02*
G01*
X47746126Y-32516889D01*
X47897791Y-32618228D01*
X48026772Y-32747209D01*
X48128111Y-32898874D01*
X48197915Y-33067396D01*
X48233500Y-33246297D01*
X48233500Y-33428703D01*
X48197915Y-33607604D01*
X48128111Y-33776126D01*
X48026772Y-33927791D01*
X47897791Y-34056772D01*
X47746126Y-34158111D01*
X47577604Y-34227915D01*
X47398703Y-34263500D01*
X47216297Y-34263500D01*
X47037396Y-34227915D01*
X46868874Y-34158111D01*
X46717209Y-34056772D01*
X46588228Y-33927791D01*
X46486889Y-33776126D01*
X46417085Y-33607604D01*
X46381500Y-33428703D01*
X46381500Y-33246297D01*
X46417085Y-33067396D01*
X46486889Y-32898874D01*
X46588228Y-32747209D01*
X46717209Y-32618228D01*
X46868874Y-32516889D01*
X47037396Y-32447085D01*
X47216297Y-32411500D01*
X47398703Y-32411500D01*
X47577604Y-32447085D01*
X47577604Y-32447085D01*
G37*
G36*
X76787604Y-32447085D02*
G01*
X76956126Y-32516889D01*
X77107791Y-32618228D01*
X77236772Y-32747209D01*
X77338111Y-32898874D01*
X77407915Y-33067396D01*
X77443500Y-33246297D01*
X77443500Y-33428703D01*
X77407915Y-33607604D01*
X77338111Y-33776126D01*
X77236772Y-33927791D01*
X77107791Y-34056772D01*
X76956126Y-34158111D01*
X76787604Y-34227915D01*
X76608703Y-34263500D01*
X76426297Y-34263500D01*
X76247396Y-34227915D01*
X76078874Y-34158111D01*
X75927209Y-34056772D01*
X75798228Y-33927791D01*
X75696889Y-33776126D01*
X75627085Y-33607604D01*
X75591500Y-33428703D01*
X75591500Y-33246297D01*
X75627085Y-33067396D01*
X75696889Y-32898874D01*
X75798228Y-32747209D01*
X75927209Y-32618228D01*
X76078874Y-32516889D01*
X76247396Y-32447085D01*
X76426297Y-32411500D01*
X76608703Y-32411500D01*
X76787604Y-32447085D01*
X76787604Y-32447085D01*
G37*
G36*
X66627604Y-32447085D02*
G01*
X66796126Y-32516889D01*
X66947791Y-32618228D01*
X67076772Y-32747209D01*
X67178111Y-32898874D01*
X67247915Y-33067396D01*
X67283500Y-33246297D01*
X67283500Y-33428703D01*
X67247915Y-33607604D01*
X67178111Y-33776126D01*
X67076772Y-33927791D01*
X66947791Y-34056772D01*
X66796126Y-34158111D01*
X66627604Y-34227915D01*
X66448703Y-34263500D01*
X66266297Y-34263500D01*
X66087396Y-34227915D01*
X65918874Y-34158111D01*
X65767209Y-34056772D01*
X65638228Y-33927791D01*
X65536889Y-33776126D01*
X65467085Y-33607604D01*
X65431500Y-33428703D01*
X65431500Y-33246297D01*
X65467085Y-33067396D01*
X65536889Y-32898874D01*
X65638228Y-32747209D01*
X65767209Y-32618228D01*
X65918874Y-32516889D01*
X66087396Y-32447085D01*
X66266297Y-32411500D01*
X66448703Y-32411500D01*
X66627604Y-32447085D01*
X66627604Y-32447085D01*
G37*
G36*
X95837604Y-32447085D02*
G01*
X96006126Y-32516889D01*
X96157791Y-32618228D01*
X96286772Y-32747209D01*
X96388111Y-32898874D01*
X96457915Y-33067396D01*
X96493500Y-33246297D01*
X96493500Y-33428703D01*
X96457915Y-33607604D01*
X96388111Y-33776126D01*
X96286772Y-33927791D01*
X96157791Y-34056772D01*
X96006126Y-34158111D01*
X95837604Y-34227915D01*
X95658703Y-34263500D01*
X95476297Y-34263500D01*
X95297396Y-34227915D01*
X95128874Y-34158111D01*
X94977209Y-34056772D01*
X94848228Y-33927791D01*
X94746889Y-33776126D01*
X94677085Y-33607604D01*
X94641500Y-33428703D01*
X94641500Y-33246297D01*
X94677085Y-33067396D01*
X94746889Y-32898874D01*
X94848228Y-32747209D01*
X94977209Y-32618228D01*
X95128874Y-32516889D01*
X95297396Y-32447085D01*
X95476297Y-32411500D01*
X95658703Y-32411500D01*
X95837604Y-32447085D01*
X95837604Y-32447085D01*
G37*
G36*
X85677604Y-32447085D02*
G01*
X85846126Y-32516889D01*
X85997791Y-32618228D01*
X86126772Y-32747209D01*
X86228111Y-32898874D01*
X86297915Y-33067396D01*
X86333500Y-33246297D01*
X86333500Y-33428703D01*
X86297915Y-33607604D01*
X86228111Y-33776126D01*
X86126772Y-33927791D01*
X85997791Y-34056772D01*
X85846126Y-34158111D01*
X85677604Y-34227915D01*
X85498703Y-34263500D01*
X85316297Y-34263500D01*
X85137396Y-34227915D01*
X84968874Y-34158111D01*
X84817209Y-34056772D01*
X84688228Y-33927791D01*
X84586889Y-33776126D01*
X84517085Y-33607604D01*
X84481500Y-33428703D01*
X84481500Y-33246297D01*
X84517085Y-33067396D01*
X84586889Y-32898874D01*
X84688228Y-32747209D01*
X84817209Y-32618228D01*
X84968874Y-32516889D01*
X85137396Y-32447085D01*
X85316297Y-32411500D01*
X85498703Y-32411500D01*
X85677604Y-32447085D01*
X85677604Y-32447085D01*
G37*
G36*
X123777604Y-32447085D02*
G01*
X123946126Y-32516889D01*
X124097791Y-32618228D01*
X124226772Y-32747209D01*
X124328111Y-32898874D01*
X124397915Y-33067396D01*
X124433500Y-33246297D01*
X124433500Y-33428703D01*
X124397915Y-33607604D01*
X124328111Y-33776126D01*
X124226772Y-33927791D01*
X124097791Y-34056772D01*
X123946126Y-34158111D01*
X123777604Y-34227915D01*
X123598703Y-34263500D01*
X123416297Y-34263500D01*
X123237396Y-34227915D01*
X123068874Y-34158111D01*
X122917209Y-34056772D01*
X122788228Y-33927791D01*
X122686889Y-33776126D01*
X122617085Y-33607604D01*
X122581500Y-33428703D01*
X122581500Y-33246297D01*
X122617085Y-33067396D01*
X122686889Y-32898874D01*
X122788228Y-32747209D01*
X122917209Y-32618228D01*
X123068874Y-32516889D01*
X123237396Y-32447085D01*
X123416297Y-32411500D01*
X123598703Y-32411500D01*
X123777604Y-32447085D01*
X123777604Y-32447085D01*
G37*
G36*
X133937604Y-32447085D02*
G01*
X134106126Y-32516889D01*
X134257791Y-32618228D01*
X134386772Y-32747209D01*
X134488111Y-32898874D01*
X134557915Y-33067396D01*
X134593500Y-33246297D01*
X134593500Y-33428703D01*
X134557915Y-33607604D01*
X134488111Y-33776126D01*
X134386772Y-33927791D01*
X134257791Y-34056772D01*
X134106126Y-34158111D01*
X133937604Y-34227915D01*
X133758703Y-34263500D01*
X133576297Y-34263500D01*
X133397396Y-34227915D01*
X133228874Y-34158111D01*
X133077209Y-34056772D01*
X132948228Y-33927791D01*
X132846889Y-33776126D01*
X132777085Y-33607604D01*
X132741500Y-33428703D01*
X132741500Y-33246297D01*
X132777085Y-33067396D01*
X132846889Y-32898874D01*
X132948228Y-32747209D01*
X133077209Y-32618228D01*
X133228874Y-32516889D01*
X133397396Y-32447085D01*
X133576297Y-32411500D01*
X133758703Y-32411500D01*
X133937604Y-32447085D01*
X133937604Y-32447085D01*
G37*
G36*
X27322331Y-24938211D02*
G01*
X27650092Y-25073974D01*
X27945070Y-25271072D01*
X28195928Y-25521930D01*
X28393026Y-25816908D01*
X28528789Y-26144669D01*
X28598000Y-26492616D01*
X28598000Y-26847384D01*
X28528789Y-27195331D01*
X28393026Y-27523092D01*
X28195928Y-27818070D01*
X27945070Y-28068928D01*
X27650092Y-28266026D01*
X27322331Y-28401789D01*
X26974384Y-28471000D01*
X26619616Y-28471000D01*
X26271669Y-28401789D01*
X25943908Y-28266026D01*
X25648930Y-28068928D01*
X25398072Y-27818070D01*
X25200974Y-27523092D01*
X25065211Y-27195331D01*
X24996000Y-26847384D01*
X24996000Y-26492616D01*
X25065211Y-26144669D01*
X25200974Y-25816908D01*
X25398072Y-25521930D01*
X25648930Y-25271072D01*
X25943908Y-25073974D01*
X26271669Y-24938211D01*
X26619616Y-24869000D01*
X26974384Y-24869000D01*
X27322331Y-24938211D01*
X27322331Y-24938211D01*
G37*
M02*
