M48
; DRILL file {KiCad (5.1.2)-2} date 12/07/2020 21:56:14
; FORMAT={-:-/ absolute / inch / decimal}
; #@! TF.CreationDate,2020-07-12T21:56:14+03:00
; #@! TF.GenerationSoftware,Kicad,Pcbnew,(5.1.2)-2
; #@! TF.FileFunction,Plated,1,2,PTH
FMAT,2
INCH
T1C0.0157
T2C0.0579
T3C0.0866
%
G90
G05
T1
X1.1625Y-2.3625
X1.9125Y-2.391
X2.6625Y-2.4196
X3.4125Y-2.4481
X4.1625Y-2.4767
X4.9125Y-2.5052
X5.38Y-2.07
X5.385Y-2.155
X5.3856Y-2.109
X5.395Y-1.825
X5.5332Y-2.0628
X5.555Y-1.985
X5.555Y-2.03
X5.565Y-1.365
X5.565Y-2.095
X5.58Y-2.455
X5.61Y-1.925
X5.68Y-1.785
X5.74Y-2.3
X5.745Y-2.125
X5.81Y-1.4
X5.955Y-1.54
X5.985Y-1.365
X6.055Y-1.215
X6.165Y-2.62
X6.2Y-1.3
X6.225Y-1.545
X6.275Y-1.26
X6.315Y-2.5
X6.42Y-1.36
X6.445Y-2.005
T2
X1.9125Y-1.2125
X2.1625Y-1.1125
X3.4125Y-2.7125
X3.6625Y-2.6125
X1.1625Y-2.7125
X1.4125Y-2.6125
X2.6625Y-1.9625
X2.9125Y-1.8625
X1.1625Y-1.9625
X1.4125Y-1.8625
X2.6625Y-1.2125
X2.9125Y-1.1125
X4.1625Y-2.7125
X4.4125Y-2.6125
X4.9125Y-1.9625
X5.1625Y-1.8625
X1.9125Y-1.9625
X2.1625Y-1.8625
X4.9125Y-2.7125
X5.1625Y-2.6125
X4.1625Y-1.2125
X4.4125Y-1.1125
X2.6625Y-2.7125
X2.9125Y-2.6125
X1.9125Y-2.7125
X2.1625Y-2.6125
X4.1625Y-1.9625
X4.4125Y-1.8625
X3.4125Y-1.9625
X3.6625Y-1.8625
X4.9125Y-1.2125
X5.1625Y-1.1125
X3.4125Y-1.2125
X3.6625Y-1.1125
X1.1625Y-1.2125
X1.4125Y-1.1125
T3
X6.53Y-1.48
X1.05Y-3.075
X6.53Y-3.065
X1.055Y-1.05
T0
M30
