G04 #@! TF.GenerationSoftware,KiCad,Pcbnew,(5.1.2)-2*
G04 #@! TF.CreationDate,2020-07-12T21:55:24+03:00*
G04 #@! TF.ProjectId,KB-Prototype,4b422d50-726f-4746-9f74-7970652e6b69,rev?*
G04 #@! TF.SameCoordinates,Original*
G04 #@! TF.FileFunction,Legend,Top*
G04 #@! TF.FilePolarity,Positive*
%FSLAX46Y46*%
G04 Gerber Fmt 4.6, Leading zero omitted, Abs format (unit mm)*
G04 Created by KiCad (PCBNEW (5.1.2)-2) date 2020-07-12 21:55:24*
%MOMM*%
%LPD*%
G04 APERTURE LIST*
%ADD10C,0.150000*%
%ADD11C,3.602000*%
%ADD12R,1.902000X1.202000*%
%ADD13C,4.089800*%
%ADD14C,1.852000*%
G04 APERTURE END LIST*
D10*
X155091428Y-72906380D02*
X155091428Y-71906380D01*
X155662857Y-72906380D02*
X155234285Y-72334952D01*
X155662857Y-71906380D02*
X155091428Y-72477809D01*
X156424761Y-72382571D02*
X156567619Y-72430190D01*
X156615238Y-72477809D01*
X156662857Y-72573047D01*
X156662857Y-72715904D01*
X156615238Y-72811142D01*
X156567619Y-72858761D01*
X156472380Y-72906380D01*
X156091428Y-72906380D01*
X156091428Y-71906380D01*
X156424761Y-71906380D01*
X156520000Y-71954000D01*
X156567619Y-72001619D01*
X156615238Y-72096857D01*
X156615238Y-72192095D01*
X156567619Y-72287333D01*
X156520000Y-72334952D01*
X156424761Y-72382571D01*
X156091428Y-72382571D01*
X157091428Y-72525428D02*
X157853333Y-72525428D01*
X158329523Y-72906380D02*
X158329523Y-71906380D01*
X158710476Y-71906380D01*
X158805714Y-71954000D01*
X158853333Y-72001619D01*
X158900952Y-72096857D01*
X158900952Y-72239714D01*
X158853333Y-72334952D01*
X158805714Y-72382571D01*
X158710476Y-72430190D01*
X158329523Y-72430190D01*
X159329523Y-72906380D02*
X159329523Y-72239714D01*
X159329523Y-72430190D02*
X159377142Y-72334952D01*
X159424761Y-72287333D01*
X159520000Y-72239714D01*
X159615238Y-72239714D01*
X160091428Y-72906380D02*
X159996190Y-72858761D01*
X159948571Y-72811142D01*
X159900952Y-72715904D01*
X159900952Y-72430190D01*
X159948571Y-72334952D01*
X159996190Y-72287333D01*
X160091428Y-72239714D01*
X160234285Y-72239714D01*
X160329523Y-72287333D01*
X160377142Y-72334952D01*
X160424761Y-72430190D01*
X160424761Y-72715904D01*
X160377142Y-72811142D01*
X160329523Y-72858761D01*
X160234285Y-72906380D01*
X160091428Y-72906380D01*
X160710476Y-72239714D02*
X161091428Y-72239714D01*
X160853333Y-71906380D02*
X160853333Y-72763523D01*
X160900952Y-72858761D01*
X160996190Y-72906380D01*
X161091428Y-72906380D01*
X161567619Y-72906380D02*
X161472380Y-72858761D01*
X161424761Y-72811142D01*
X161377142Y-72715904D01*
X161377142Y-72430190D01*
X161424761Y-72334952D01*
X161472380Y-72287333D01*
X161567619Y-72239714D01*
X161710476Y-72239714D01*
X161805714Y-72287333D01*
X161853333Y-72334952D01*
X161900952Y-72430190D01*
X161900952Y-72715904D01*
X161853333Y-72811142D01*
X161805714Y-72858761D01*
X161710476Y-72906380D01*
X161567619Y-72906380D01*
X162186666Y-72239714D02*
X162567619Y-72239714D01*
X162329523Y-71906380D02*
X162329523Y-72763523D01*
X162377142Y-72858761D01*
X162472380Y-72906380D01*
X162567619Y-72906380D01*
X162805714Y-72239714D02*
X163043809Y-72906380D01*
X163281904Y-72239714D02*
X163043809Y-72906380D01*
X162948571Y-73144476D01*
X162900952Y-73192095D01*
X162805714Y-73239714D01*
X163662857Y-72239714D02*
X163662857Y-73239714D01*
X163662857Y-72287333D02*
X163758095Y-72239714D01*
X163948571Y-72239714D01*
X164043809Y-72287333D01*
X164091428Y-72334952D01*
X164139047Y-72430190D01*
X164139047Y-72715904D01*
X164091428Y-72811142D01*
X164043809Y-72858761D01*
X163948571Y-72906380D01*
X163758095Y-72906380D01*
X163662857Y-72858761D01*
X164948571Y-72858761D02*
X164853333Y-72906380D01*
X164662857Y-72906380D01*
X164567619Y-72858761D01*
X164520000Y-72763523D01*
X164520000Y-72382571D01*
X164567619Y-72287333D01*
X164662857Y-72239714D01*
X164853333Y-72239714D01*
X164948571Y-72287333D01*
X164996190Y-72382571D01*
X164996190Y-72477809D01*
X164520000Y-72573047D01*
X159067619Y-74556380D02*
X158591428Y-74556380D01*
X158591428Y-73556380D01*
X159400952Y-74032571D02*
X159734285Y-74032571D01*
X159877142Y-74556380D02*
X159400952Y-74556380D01*
X159400952Y-73556380D01*
X159877142Y-73556380D01*
X160639047Y-74032571D02*
X160305714Y-74032571D01*
X160305714Y-74556380D02*
X160305714Y-73556380D01*
X160781904Y-73556380D01*
X161020000Y-73556380D02*
X161591428Y-73556380D01*
X161305714Y-74556380D02*
X161305714Y-73556380D01*
X149793000Y-75244000D02*
X144593000Y-75244000D01*
X144593000Y-75244000D02*
X144593000Y-70044000D01*
X144593000Y-70044000D02*
X149793000Y-70044000D01*
X149793000Y-70044000D02*
X149793000Y-75244000D01*
X148193000Y-72644000D02*
G75*
G03X148193000Y-72644000I-1000000J0D01*
G01*
%LPC*%
D11*
X165862000Y-77851000D03*
X165862000Y-37592000D03*
X26670000Y-78105000D03*
X26797000Y-26670000D03*
D12*
X150293000Y-70794000D03*
X144093000Y-74494000D03*
X150293000Y-74494000D03*
X144093000Y-70794000D03*
D13*
X128587500Y-71437500D03*
D14*
X123507500Y-71437500D03*
X133667500Y-71437500D03*
D13*
X109537500Y-71437500D03*
D14*
X104457500Y-71437500D03*
X114617500Y-71437500D03*
D13*
X90487500Y-71437500D03*
D14*
X85407500Y-71437500D03*
X95567500Y-71437500D03*
D13*
X71437500Y-71437500D03*
D14*
X66357500Y-71437500D03*
X76517500Y-71437500D03*
D13*
X52387500Y-71437500D03*
D14*
X47307500Y-71437500D03*
X57467500Y-71437500D03*
D13*
X33337500Y-71437500D03*
D14*
X28257500Y-71437500D03*
X38417500Y-71437500D03*
D13*
X128587500Y-52387500D03*
D14*
X123507500Y-52387500D03*
X133667500Y-52387500D03*
D13*
X109537500Y-52387500D03*
D14*
X104457500Y-52387500D03*
X114617500Y-52387500D03*
D13*
X90487500Y-52387500D03*
D14*
X85407500Y-52387500D03*
X95567500Y-52387500D03*
D13*
X71437500Y-52387500D03*
D14*
X66357500Y-52387500D03*
X76517500Y-52387500D03*
D13*
X52387500Y-52387500D03*
D14*
X47307500Y-52387500D03*
X57467500Y-52387500D03*
D13*
X33337500Y-52387500D03*
D14*
X28257500Y-52387500D03*
X38417500Y-52387500D03*
D13*
X128587500Y-33337500D03*
D14*
X123507500Y-33337500D03*
X133667500Y-33337500D03*
D13*
X109537500Y-33337500D03*
D14*
X104457500Y-33337500D03*
X114617500Y-33337500D03*
D13*
X90487500Y-33337500D03*
D14*
X85407500Y-33337500D03*
X95567500Y-33337500D03*
D13*
X71437500Y-33337500D03*
D14*
X66357500Y-33337500D03*
X76517500Y-33337500D03*
D13*
X52387500Y-33337500D03*
D14*
X47307500Y-33337500D03*
X57467500Y-33337500D03*
D13*
X33337500Y-33337500D03*
D14*
X28257500Y-33337500D03*
X38417500Y-33337500D03*
M02*
