M48
; DRILL file {KiCad (5.1.2)-2} date 12/07/2020 21:56:14
; FORMAT={-:-/ absolute / inch / decimal}
; #@! TF.CreationDate,2020-07-12T21:56:14+03:00
; #@! TF.GenerationSoftware,Kicad,Pcbnew,(5.1.2)-2
; #@! TF.FileFunction,NonPlated,1,2,NPTH
FMAT,2
INCH
T1C0.0689
T2C0.1570
%
G90
G05
T1
X1.8625Y-2.0625
X2.2625Y-2.0625
X4.8625Y-2.8125
X5.2625Y-2.8125
X4.1125Y-1.3125
X4.5125Y-1.3125
X2.6125Y-2.8125
X3.0125Y-2.8125
X1.8625Y-2.8125
X2.2625Y-2.8125
X4.1125Y-2.0625
X4.5125Y-2.0625
X3.3625Y-2.0625
X3.7625Y-2.0625
X4.8625Y-1.3125
X5.2625Y-1.3125
X3.3625Y-1.3125
X3.7625Y-1.3125
X1.1125Y-1.3125
X1.5125Y-1.3125
X1.8625Y-1.3125
X2.2625Y-1.3125
X3.3625Y-2.8125
X3.7625Y-2.8125
X1.1125Y-2.8125
X1.5125Y-2.8125
X2.6125Y-2.0625
X3.0125Y-2.0625
X1.1125Y-2.0625
X1.5125Y-2.0625
X2.6125Y-1.3125
X3.0125Y-1.3125
X4.1125Y-2.8125
X4.5125Y-2.8125
X4.8625Y-2.0625
X5.2625Y-2.0625
T2
X4.3125Y-2.8125
X5.0625Y-2.0625
X2.0625Y-2.0625
X5.0625Y-2.8125
X4.3125Y-1.3125
X2.8125Y-2.8125
X2.0625Y-2.8125
X4.3125Y-2.0625
X3.5625Y-2.0625
X5.0625Y-1.3125
X3.5625Y-1.3125
X1.3125Y-1.3125
X2.0625Y-1.3125
X3.5625Y-2.8125
X1.3125Y-2.8125
X2.8125Y-2.0625
X1.3125Y-2.0625
X2.8125Y-1.3125
T0
M30
